<?xml version="1.0" standalone="no"?>
<!DOCTYPE svg PUBLIC "-//W3C//DTD SVG 1.1//EN" "http://www.w3.org/Graphics/SVG/1.1/DTD/svg11.dtd" >
<svg xmlns="http://www.w3.org/2000/svg">
<metadata>
This is a custom SVG webfont generated by Font Squirrel.
Copyright   : Sir Speedy of Clovis   wwwsirspeedy3000com
</metadata>
<defs>
<font id="webfontWrHzopKi" horiz-adv-x="1146" >
<font-face units-per-em="2048" ascent="1638" descent="-410" />
<missing-glyph horiz-adv-x="512" />
<glyph unicode=" "  horiz-adv-x="512" />
<glyph unicode="&#x09;" horiz-adv-x="512" />
<glyph unicode="&#xa0;" horiz-adv-x="512" />
<glyph unicode="!" horiz-adv-x="585" d="M96 1370l25 16l22 -2q111 -10 254 -67q158 -61 131 -98l-12 -17q-4 -6 -10 -43l-29 -174q-10 -66 -18 -203l-10 -225q0 -16 -3 -80q-2 -47 0 -65l5 -31q2 -29 -11 -29q4 0 -26 8l-35 11q-25 6 -86 26l-68 25q-66 25 -78 55q-4 10 -4 21l-2 499q-2 162 -10 230l-8 71 l-12 45l-5 11zM133 119l2 26l8 97v43q-10 63 29 63q16 0 64 -16l96 -35q102 -37 114 -68q6 -14 0 -41v-55l-2 -90q0 -55 -24 -55l-21 4l-84 24q-16 4 -43.5 13.5t-33.5 13.5l-48 20q-55 19 -57 56z" />
<glyph unicode="&#x22;" horiz-adv-x="874" d="M250 954v19l4 51l6 162q4 100 -2 123q-4 12 -4 24q0 37 41 37l70 -18q10 -2 18 -9l20 -16l15 -4l16 -10l35 -10q8 -4 25.5 -21.5t25.5 -36.5q6 -18 -6 -57q-27 -86 -25 -260q0 -88 -6 -99q-14 -14 -32 -14l-39 19l-37 12q-96 31 -119 88zM618 954v19l5 51l6 162 q4 100 -2 123q-4 12 -4 24q0 37 41 37l69 -18q8 -2 21 -9l18 -16l14 -4l17 -10l35 -10q14 -6 28.5 -21.5t22.5 -36.5q6 -18 -6 -57q-27 -88 -25 -260q0 -92 -6 -99q-16 -14 -33 -14l-39 19l-37 12q-96 31 -118 88q-7 16 -7 20z" />
<glyph unicode="#" d="M45 489q-2 43 0 60q6 61 29 61l18 -2q4 0 35 -6q4 0 16 -2h19l82 2l18 160h-24l-56 -2l-39 -4q-33 -4 -48 35.5t-13 78.5l2 54q2 41 29 41l16 -2q51 -6 70 -7h82l36 312q6 63 0 88q-10 31 13 30q31 0 129 -41.5t110 -64.5q4 -8 -4 -20q-18 -31 -37 -199l-12 -105h182 l35 312q6 66 0 88q-10 31 12 30q33 0 129.5 -40.5t112.5 -65.5q4 -8 -6 -20q-18 -37 -37 -199l-12 -105h26l29 2h10q39 0 52 3l26 4q29 0 39 -27l2 -12l10 -70v-57q2 -43 -22 -43l-21 2q-14 0 -61 2l-98 4l-15 -2l-16 -162l29 2h39q27 0 51 4l24 4q29 0 39 -26l2 -13l10 -69 l3 -58q0 -45 -23 -45l-20 2q-18 2 -64 5l-111 2l-38 -359q0 -6 1 -19.5t-1 -19.5q10 -33 -11 -33q-43 0 -127 42t-110 79q25 35 37 144l16 166h-184l-37 -359q0 -6 -1 -19.5t1 -19.5q6 -33 -10 -33q-43 0 -127 42t-111 79q25 41 37 144l16 166h-22l-56 -5l-39 -2 q-47 -2 -61 88zM477 600h182l19 164h-184z" />
<glyph unicode="$" d="M33 215q0 53 45 127q63 102 119 102q18 0 32 -18q37 -43 168 -84q119 -37 189 -37q61 0 61 37q0 63 -106 121l-109 57q-82 43 -160 121q-86 86 -114 164q-27 68 -15 209q6 74 43 180t41 152q8 63 41 63q23 0 88 -16l66 -17l29 -6l8 76l-2 31q-6 31 12 30q37 0 98 -28 q74 -35 68 -80l-17 -90l35 -11q193 -57 246 -90q68 -41 98 -127q4 -10 13 -43q4 -10 12 -59q10 -63 8 -102q-2 -45 -92 -46q-250 0 -276 68q-4 8 2 23q10 29 12 79q2 49 -8 76q-20 53 -64 53q-39 0 -55 -106q-8 -49 -6 -113q2 -98 67 -153q18 -16 152 -92q209 -119 256 -244 q23 -57 22 -115q0 -90 -57 -180q-90 -141 -276 -141q-39 0 -140 14l2 -170l-20 -2q-72 -8 -172 78l22 137l-28 10l-131 43q-78 25 -123 49l-31 13l-20 2q-33 4 -33 55z" />
<glyph unicode="%" horiz-adv-x="1183" d="M49 1133q18 119 62 204q8 16 12 29q2 2 6 23l18 2q18 0 80 -23q12 -6 56 -35q33 -25 57 -24l41 -15q37 -8 74 -41q63 -55 63 -149q0 -88 -47 -213q-41 -109 -113 -109q-78 0 -176 54q-106 59 -131 127q-20 51 -2 170zM221 944q16 -41 58 -41q37 0 63 107q33 129 18 184 q-18 47 -59 49q-43 2 -70 -115q-30 -131 -10 -184zM346 84q53 111 129 399l88 332l82 356q35 150 29 183q-14 41 16 41q37 0 112 -28t85 -54q0 -2 -2 -2q0 -6 -4 -15q-14 -23 -45 -125l-27 -90l-174 -663q-80 -303 -72 -373l2 -31q4 -27 -22 -26q-84 0 -197 96zM711 342 q18 119 59 205q4 10 12 26l6 25h19q29 0 82 -20.5t74 -38.5q16 -10 36 -25l43 -12q37 -10 72 -41q63 -55 64 -152q0 -86 -48 -211q-41 -109 -110 -108q-78 0 -176 55q-106 57 -131 125q-22 53 -2 172zM883 154q14 -41 55 -41q35 0 63 104q33 127 19 182q-18 49 -59 52 q-41 2 -68 -115q-30 -131 -10 -182z" />
<glyph unicode="&#x26;" horiz-adv-x="1288" d="M100 1102q25 94 111 219l20 31q27 37 56 37q88 0 245 -66q72 -31 181 -63q244 -74 288 -191q10 -31 13 -61l2 -84q18 -59 -49 -60q-72 0 -181 19q-141 27 -155 63q-4 10 2 27q33 90 8 151q-16 43 -57 43q-43 0 -84 -123q-20 -61 -25 -110q-6 -47 6 -80q8 -18 23.5 -30.5 t32.5 -14.5l24 2l21 2q49 0 155 -82q92 -72 109 -115q10 -23 -15 -26l-34 -10q-10 -2 -35 -17q-10 -6 -49 -43q-113 -113 -113 -201q0 -37 26.5 -62.5t63.5 -25.5q68 0 139 91q61 80 76 155q6 27 21 33q23 4 90 4q117 0 125 -2q59 -8 102 -59q68 -84 96 -160q8 -20 7 -31 q-2 -8 -13 -8l-28 2h-66q-166 -289 -451 -289q-168 0 -342 92q-188 102 -243 246q-18 47 -19 94q0 96 68 166q47 49 154 107l34 18l-45 8q-233 43 -293 201q-31 82 -2 203z" />
<glyph unicode="'" horiz-adv-x="573" d="M250 954v19l4 51l6 162q4 100 -2 123q-4 12 -4 24q0 37 41 37l70 -18q10 -2 18 -9l20 -16l15 -4l16 -10l35 -10q8 -4 25.5 -21.5t25.5 -36.5q6 -18 -6 -57q-27 -86 -25 -260q0 -88 -6 -99q-14 -14 -32 -14l-39 19l-37 12q-96 31 -119 88z" />
<glyph unicode="(" horiz-adv-x="630" d="M135 780q0 178 41 363q27 133 41 160l4 55q2 27 45 26q47 0 119 -22q84 -29 96 -62q8 -16 -2 -28l-14 -23q-33 -53 -62 -219q-25 -141 -26 -233q-6 -180 22 -445q27 -254 68 -364q10 -23 33 -58q2 -6 13 -21t11 -28q0 -43 -139 -43q-57 0 -84 14.5t-43 59.5 q-49 129 -84 385q-41 313 -39 483z" />
<glyph unicode=")" horiz-adv-x="632" d="M72 1343q0 45 159 46q78 0 103 -66q84 -223 112 -547q23 -254 9 -489q-14 -219 -70 -367q-2 -8 -2 -16l4 -23q12 -39 -49 -39q-47 0 -117 25q-82 27 -96 61q-6 16 12 41q45 63 70 285q16 154 16 301q2 229 -28 379l-66 307q-8 25 -41 66l-14 24q-2 6 -2 12z" />
<glyph unicode="*" horiz-adv-x="954" d="M258 1174q-14 37 0 79q16 47 55 47q18 0 76 -40q31 -23 92 -60l111 -67l-4 104q-2 61 -21 143q-6 37 27 37q20 0 43 -6q16 -4 49 -20q55 -29 64 -50q2 -8 -2 -22l-3 -10l-32 -224l207 -22l45 6l20 -14q8 -10 19 -27q14 -39 14 -84q-2 -41 -19 -41l-12 2l-242 64l66 -115 l72 -113q20 -25 24 -32q14 -41 -84 -41q-41 0 -84 18l-12 31l-10 41l-21 57l-16 41l-41 96l-82 -110q-31 -41 -33 -82v-15q-41 0 -93 37t-66 76q-6 18 6 29l184 160z" />
<glyph unicode="+" d="M176 782q-12 33 6 33q10 0 30.5 -6t43.5 -6h188l-16 149q-8 86 -20 125l49 8q39 0 136 -31.5t107 -56.5q2 -4 -10 -61t-12 -72v-76h88q51 0 86 9q80 -68 121 -172q8 -25 8 -41q0 -27 -29 -27l-20 4q-57 10 -111 12l-125 5l4 -134l9 -71l12 -86l-43 -6q-59 0 -138 39.5 t-94 74.5v11l7 14l2 24l2 43l-2 97h-99l-24 -6l-27 8q-23 12 -66 75.5t-63 120.5z" />
<glyph unicode="," horiz-adv-x="471" d="M-145 -104q0 2 2 38l4 46l6 34l6 64v45q2 29 5 59.5t34 30.5q33 0 128 -35t103 -57q2 -8 -8 -51q-41 -178 -45 -242q-2 -29 -20 -29q-29 0 -117 37t-98 60z" />
<glyph unicode="-" horiz-adv-x="630" d="M-74 623q-4 59 33 59q14 0 23 -2l28 -8h254q135 0 189 6l18 2q29 0 43 -37q18 -51 23 -92l6 -70q4 -61 -25 -63l-20 4q-10 2 -86 4l-211 6l-54 -2q-29 -2 -102 -6l-29 -2q-49 -4 -67 49q-16 41 -19 80z" />
<glyph unicode="." horiz-adv-x="471" d="M-86 117l8 78l2 98q0 25 13 24q2 0 38 -10l68 -18l68 -23q84 -29 82 -78l-3 -176q0 -27 -16 -26l-22 4l-35 10q-182 53 -199 98q-2 7 -4 19z" />
<glyph unicode="/" horiz-adv-x="911" d="M119 -31q-6 18 8 33q8 12 10 27l29 67q25 61 72 248l149 594q27 104 41 186l21 136l10 71q6 39 30 39q47 0 143.5 -49t108.5 -78q2 -8 -10 -20l-10 -11q-6 -8 -19 -34l-30 -68q-39 -88 -74 -233l-203 -869l-14 -102q-2 -14 -2 -29v-22q-2 -29 -29 -29q-49 0 -135 51 q-78 47 -96 92z" />
<glyph unicode="0" d="M92 539q-6 86 0 233q12 262 82 494q12 43 12 57v37q0 20 50 20q94 0 327 -86q49 -18 125 -30q139 -25 219 -86q145 -115 178 -451q18 -174 7 -319q-16 -184 -62 -279q-72 -147 -221 -147q-248 0 -469 135q-82 51 -133 108q-97 113 -115 314zM483 563q16 -356 166 -356 q104 0 119 264q6 123 -10.5 297t-44.5 250q-45 119 -129 119q-53 0 -74 -97q-2 -2 -16 -137q-19 -164 -11 -340z" />
<glyph unicode="1" d="M346 1360q0 25 47 24q92 0 254 -51q113 -35 105 -76l-7 -28q0 -4 -2 -27q0 -10 2 -35l7 -123l10 -223q8 -211 43 -495q29 -252 53 -316q12 -35 -37 -35q-61 0 -207 43q-160 47 -174 86q-2 4 2 21q0 2 2 27q-4 55 -2 65l-4 96l-8 103l-68 862q-4 31 -14 70q-2 8 -2 12z " />
<glyph unicode="2" d="M57 1241q-10 27 52 41q8 4 15 5t23 9q184 84 306 84q219 0 413 -176q233 -211 234 -373q0 -82 -58 -157q-43 -59 -157 -142q-100 -72 -183 -112l-155 -78l-29 -16h137q164 0 248 16l21 4q37 0 112 -108q66 -94 86 -148l25 -61l6 -25q0 -16 -23 -14l-26 2q-53 12 -103 12 l-116 -2h-170l-178 -2q-25 0 -58 -2h-33l-30 -4q-72 0 -221 256q-53 90 -86 176q-12 29 -9 39q12 10 35 20q10 2 33 17l82 51q184 113 316 248t132 190q0 51 -65 51q-53 0 -122 -34.5t-97 -77.5q-12 -18 -27 -19q-37 0 -154 115q-104 104 -139 156l-28 45z" />
<glyph unicode="3" d="M59 1311l21 -2q23 0 31 1t34 7l103 22q111 25 201 25q123 0 235 -78q82 -55 166 -166q141 -184 141 -289q0 -78 -78 -120q-57 -31 -92 -31h-12q-8 0 -4 -8q2 -6 8 -8l18 -2q111 -14 211 -152q106 -147 107 -262q0 -84 -62 -148q-100 -102 -317 -102q-236 0 -459 61 q-51 14 -82 19q-70 0 -67 155q0 78 18 138q29 84 51 84q4 0 19 -9l33 -20q35 -23 143 -37q90 -14 152 -14q197 0 196 63q0 25 -20 45q-47 47 -131 47q-82 0 -129 -8l-33 -6q-25 0 -49 29q-49 61 -88 166l-29 71q-10 31 -12 52q-6 23 14 22l8 -2l21 -6l26 -4q106 0 230 57 q80 37 80 74q0 53 -76 53q-92 0 -254 -90q-74 45 -148 137q-86 109 -110 189z" />
<glyph unicode="4" d="M104 662q-8 25 15 53q10 6 20 33l27 63l115 272l45 121q37 104 49 156l4 20h18q88 0 295 -63q229 -70 250 -125q-2 -102 -2 -219l18 -268h19q14 2 30.5 -16.5t55.5 -84.5l53 -98q14 -25 19 -39l12 -31q14 -37 -6 -37l-17 2q-27 6 -94 7h-49l16 -209l17 -101l2 -51l26 -49 q4 -10 -10 -16l-20 -5q-72 0 -213 46q-162 49 -178 96q-4 10 -5 24l9 39q12 66 6 144l-4 67l-103 -4l-59 -6h-33q-6 0 -12 -4l-23 -4q-41 0 -159 121q-114 115 -134 166zM465 696l137 4l-20 312q2 6 -7 6q-6 0 -10 -6l-4 -17q-49 -201 -96 -299z" />
<glyph unicode="5" d="M180 305q20 121 58 121q10 0 18 -6l18 -17q33 -29 168 -28q156 0 254 41q80 33 80 80q0 70 -106 69q-117 0 -181 -45q-8 -8 -18 -8q-39 0 -131 96q-80 82 -113 135l9 453l-7 72l-4 61v31q2 14 23 12l622 -29l27 -10q27 -20 66 -125q31 -80 36 -135q6 -57 -10 -61l-16 4 q-37 10 -62 14q-16 2 -67 4l-154 6l-61 -4l-15 -200q47 10 64 10q129 0 258 -133q113 -115 166 -252q29 -78 28 -146q0 -104 -69 -176q-135 -141 -412 -141q-225 0 -368 65l-45 21q-39 6 -50 33q-24 67 -6 188z" />
<glyph unicode="6" d="M125 645q0 88 16 186q43 264 185 496q18 31 17 56.5t22 25.5q66 0 236.5 -83t189.5 -134q8 -20 0 -33q-8 -12 -35 -8l-19 2q-104 -94 -155 -317l57 6q113 12 291 -90q133 -76 182 -207q39 -100 39 -197q0 -104 -45 -203q-72 -162 -238 -161q-94 0 -231 43 q-121 41 -215 94q-160 90 -228.5 215t-68.5 309zM543 569q-20 -106 6 -200q6 -18 18 -39q45 -57 99 -58q57 0 82 107q20 88 -5 178q-29 111 -114 111q-70 -1 -86 -99z" />
<glyph unicode="7" d="M-2 1391q137 -23 311 -25h408q29 2 86 -68q143 -172 188 -292q14 -39 0 -60l-20 -28q-12 -18 -33 -78l-33 -92q-23 -61 -45 -140l-125 -411l-22 -97q-2 -8 -8 -45q-2 -12 -7 -28q-2 -53 -32 -54q-20 0 -87 36t-135 85q-31 23 -82 72q-45 43 -51 59q-4 8 4 25l19 41 q49 102 131 381q61 213 117 362l-349 -10q-57 -2 -127 100q-49 74 -77 154q-21 52 -31 113z" />
<glyph unicode="8" d="M109 1079q0 96 51 258l18 56q29 14 64 14q123 0 262 -78q397 -37 485 -270q20 -55 21 -109q0 -180 -172 -258q199 -100 270 -291q27 -72 27 -139q0 -78 -35 -151q-68 -135 -309 -136q-219 0 -418 107q-172 92 -236 256q-25 68 -24 129q0 201 225 258q-90 53 -133 102 q-96 109 -96 252zM487 1092q-33 -98 68 -201q55 27 78.5 76t1.5 106q-25 66 -88 66q-46 0 -60 -47zM535 401q0 -53 37.5 -99t91.5 -46q45 0 65 43q23 53 -18 127q-33 55 -88 102q-88 -51 -88 -127z" />
<glyph unicode="9" d="M98 1165q10 123 23 152l12 26l8 35q6 35 70 35q102 0 189 -20.5t173 -65.5q61 0 261 -80q119 -47 196 -125q-6 -90 17 -274q29 -221 30 -287q8 -211 -10 -309q-47 -272 -299 -272q-227 0 -481 167q-111 72 -125 111q-4 12 -4 29q0 47 53 106q70 76 96 76q33 0 45 -31 l6 -18q14 -39 104.5 -97.5t133.5 -58.5q66 0 86 135q14 90 6 181q-35 -23 -76 -23q-123 0 -272 72q-168 80 -219 219q-39 106 -23 317zM475 1065q-14 -219 60 -279q29 -23 57 -22q72 0 78 133q0 -12 -2 45q0 6 -5.5 61.5t-19.5 92.5q-31 82 -98 82q-64 0 -70 -113z" />
<glyph unicode=":" horiz-adv-x="471" d="M43 117l8 78l2 98q0 25 13 24q2 0 38 -10l68 -18l68 -23q84 -29 82 -78l-3 -176q0 -27 -16 -26l-22 4l-35 10q-182 53 -199 98q-2 7 -4 19zM57 799l6 37l5 137q0 25 12 24q8 0 39 -8l67 -18l68 -25q84 -31 82 -78l-2 -176q0 -25 -17 -24l-20 4l-35 10q-184 55 -201 96 q-2 5 -4 21z" />
<glyph unicode=";" horiz-adv-x="471" d="M-10 799l6 37l-2 41l4 61v35q-2 25 14 24q8 0 39 -8l68 -18l65 -25q47 -18 58 -24q27 -18 26 -54l-2 -176q-2 -25 -18 -24l-23 4l-35 10q-184 55 -198 96q-4 11 -2 21zM4 -104q0 2 2 38l4 46l6 34l4 64l3 45q0 29 3 59.5t33 30.5q35 0 129.5 -35t102.5 -57q4 -8 -6 -51 q-43 -178 -45 -242q-2 -29 -21 -29q-31 0 -119 37t-96 60z" />
<glyph unicode="&#x3c;" d="M190 561v244l711 385v-289l-403 -219l401 -221v-287z" />
<glyph unicode="=" d="M150 483q0 74 53 146q74 -12 168 -13h377q86 0 143 15l16 4q23 0 23 -35q0 -55 -15 -106q-20 -74 -63 -74q-6 0 -14 2h-11l-26 4h-385q-119 0 -178 -14q-25 -6 -37 -6q-51 -1 -51 77zM221 791q0 80 55 167l25 -4q88 -14 225 -12l332 4q72 0 109 12l14 3q23 0 23 -35 q0 -45 -7 -70q0 -8 -16 -65q-25 -63 -47 -60l-33 6h-29l-36 2h-326q-111 0 -205 -14l-35 -2q-49 -2 -49 68z" />
<glyph unicode="&#x3e;" d="M272 174v289l406 219l-404 223v285l709 -387v-242z" />
<glyph unicode="?" horiz-adv-x="1056" d="M-14 1202q-6 14 20 23l19 12q94 66 174 94q115 43 188 43q109 0 234 -76q76 -47 198 -153q195 -168 228 -254q12 -33 12 -66q0 -137 -209 -271t-209 -218q0 -35 -18 -35q-41 0 -161 79t-132 116q-16 41 67 159q68 100 119 146l55 49q94 84 95 135q0 33 -45 64 q-29 20 -64 20q-55 0 -132 -54t-97 -108q-135 47 -303 244l-27 31q-10 12 -12 20zM305 266q-6 57 14 58q18 0 87 -19l88 -24q57 -16 75 -25q41 -20 47 -57v-183q0 -27 -16 -26q-18 0 -36.5 3t-59.5 15l-98 29q-82 25 -95 55q-2 6 -2 45v92z" />
<glyph unicode="@" horiz-adv-x="1441" d="M76 809q-2 186 53 301q133 276 539 276q238 0 411 -94q193 -106 273 -315q51 -139 39 -275q-20 -238 -240 -348q-94 -47 -174 -47q-119 0 -150 99l-8 26q-12 -78 -28 -96q-20 -27 -95 -27q-162 0 -217 146q-29 80 -35 231q0 16 23 275l2 26q-4 25 4 31l8 6l15 8l28 2 l119 4q82 2 111 -14h10l10 2q14 0 41 -12q-4 35 94 35q102 0 115 -33q6 -12 0 -43q-2 -16 -2 -72l-2 -102v-119v-74l4 -76l2 -16q8 -20 29 -20q18 0 49 34q41 47 55 76q33 68 33 146q0 80 -35 172q-111 289 -467 288q-279 0 -364 -196q-37 -84 -31 -234q6 -145 53 -268 q135 -358 561 -358q193 0 320 53l28 6q23 0 63 -41t56 -82q6 -16 -12 -27q-145 -84 -436 -83q-604 0 -789 489q-63 164 -63 340zM684 524l10 -82l2 -12q4 -14 19 -14q31 0 45 141q10 92 10 174q0 86 -6 125q-8 61 -41 62q-31 0 -39 -101q-12 -172 0 -293z" />
<glyph unicode="A" horiz-adv-x="1114" d="M4 236q-2 5 -2 10q0 8 6 16l19 31q23 35 36 90l261 922q8 43 6 49l-8 22q-10 27 20 27q78 0 330 -98l172 -68q137 -53 147 -82q2 -6 0 -14l-8 -27q-11 -32 -11 -120q0 -79 9 -203l25 -367q10 -176 32 -293q8 -45 11 -80l2 -18l20 -43q1 -3 1 -6q0 -10 -17 -13 q-72 0 -203 50.5t-215 113.5v250l-213 -4l-41 -238q-6 -37 -10 -84q-1 -7 -1 -15q0 -25 5 -60q-106 18 -271 147q-90 72 -102 105zM475 637h154l-2 506z" />
<glyph unicode="B" horiz-adv-x="1105" d="M-55 1303q-3 6 -3 10q0 8 11 8l24 -4q233 47 449 47q178 0 346 -139q219 -180 219 -328q0 -137 -213 -229q72 0 125 -35q102 -68 154 -203q23 -57 22 -104q0 -150 -243 -258q-182 -82 -322 -82q-70 0 -133 43l-133 88q-150 100 -162 133q-2 6 4 29l6 34l10 80 q10 68 11 162l6 512q-41 41 -98 119l-68 94zM469 324q76 16 145 53q94 51 95 110q0 66 -80 66q-66 0 -154 -45zM481 848q61 29 117 70q78 59 78 106q0 49 -70 49t-123 -20z" />
<glyph unicode="C" horiz-adv-x="1148" d="M47 508q0 98 29 229q51 238 188 498l33 63q8 27 29 64q14 10 45 10q86 0 243 -53l105 -35l112 -35q94 -29 161 -70.5t85 -82.5q16 -33 19 -115l-17 -176l4 -10q-55 -14 -86 -15q-72 0 -168 23q-125 31 -141 74q-4 10 2 20l6 16q18 35 32 112q8 43 8 72q0 22 -5 36 q-10 27 -37 26q-25 0 -39 -35l-26 -63q-80 -188 -131 -424q-33 -158 -33 -240t45 -116q27 -20 51 -21q53 0 113 86q55 80 59 137q2 39 11.5 51.5t43.5 12.5q59 0 164 -27q125 -31 140 -67q1 -4 1 -10q0 -25 -22 -85q-29 -80 -63 -137q-137 -240 -330 -239q-92 0 -283 94 q-270 133 -323 278q-25 64 -25 154z" />
<glyph unicode="D" horiz-adv-x="1175" d="M-49 1313q-2 8 12 8l60 6l88 12l118 21q70 12 189 12q133 0 230 -34.5t204 -116.5q305 -233 305 -490q0 -252 -266 -504q-74 -72 -176 -145q-137 -98 -195 -98q-47 0 -168 71q-98 57 -157 105l-97 76q-14 12 -16 16v14l10 33q14 47 23 188l32 549q-104 106 -161 213 l-21 41l-10 13zM469 362q129 100 238 316q72 141 71 229q0 145 -168 146q-31 0 -49 -3t-45 -14l-2 -18q-4 -143 -22 -412z" />
<glyph unicode="E" horiz-adv-x="944" d="M39 1348q0 16 10 16l19 -4l16 -4h606q37 -35 96 -129q53 -88 74 -146q10 -29 -2 -30l-22 6q-12 4 -31 6h-258l-29 -262l182 -10l15 2l10 -5q29 -16 78 -100q41 -72 61 -121l8 -22l7 -33l-11 -2l-18 2q-29 8 -111 8h-131l-110 -2l-19 -225l271 -10q43 -39 96 -118t74 -136 q6 -16 6 -27q0 -20 -23 -20l-37 6q-43 6 -243 10l-123 2l-127 -4l-54 -4h-2q-46 0 -153 143q-74 96 -86 125q-4 12 2 35q2 4 14 82l10 65l5 47l51 582q-39 55 -76 133q-45 95 -45 144z" />
<glyph unicode="F" horiz-adv-x="911" d="M55 1374l4 2l23 -6h16l611 -4q45 -45 96 -127q57 -88 78 -145q5 -14 5 -23q0 -15 -16 -16l-14 2q-43 13 -141 12h-29l-186 -4l-2 -254l209 -6q90 -96 151 -258q6 -18 6 -31q0 -8 -2 -12l-6 -2l-24 10l-25 4l-88 2l-66 -2l-166 -2l-10 -272q-1 -32 -1 -61q0 -98 11 -142 q16 -45 -16 -45q-78 0 -223 74q-167 85 -167 137q0 4 1 8l10 35l6 69l6 93l33 745q-20 41 -43 82q-25 53 -38 87q-8 19 -7 33q0 10 4 17z" />
<glyph unicode="G" horiz-adv-x="1216" d="M47 592q0 137 59 309q82 240 199 397q12 14 17 33v25q-2 20 49 20q127 0 350 -88l33 -12q330 -76 372 -193q16 -39 16 -91q0 -31 -5 -66q-4 -28 -4 -49q0 -26 6 -39q-18 -25 -66 -25q-74 0 -182 35q-131 39 -152 90q-4 10 2 25q26 81 27 127q0 22 -6 36q-14 39 -49 39 q-55 0 -152 -243q-49 -125 -82 -289q-23 -116 -23 -194q0 -62 15 -99q27 -72 100 -72q59 0 131 74q59 66 84 131h-90q-31 0 -55 35l-20 29q-51 70 -80 145q-12 31 -6 37q8 8 40 6l54 -2l301 -8q31 0 43 -5t39 -28q100 -92 159 -184l31 -49l12 -23q2 -2 -12 -31l-14 -20 l-113 -160q-61 -86 -112 -129q-121 -102 -234 -102q-102 0 -307 116q-287 164 -344 318q-31 78 -31 174z" />
<glyph unicode="H" horiz-adv-x="1185" d="M100 168q-1 2 -1 6q0 12 7 43q4 10 9 80l4 80l2 948l-10 27q-2 8 12 22l18 4q57 0 230.5 -65.5t187.5 -102.5q4 -14 -9 -39.5t-20 -175.5l-6 -182h152l2 496l-6 32q-8 33 20 33q61 0 236.5 -71.5t187.5 -104.5q1 -3 2 -7q0 -7 -6 -15l-16 -23q-10 -16 -17 -127l-8 -123 l-10 -801q0 -23 2 -57q4 -16 3 -27q0 -28 -22 -28q-63 0 -210 59q-127 51 -189 115q20 47 27 139l10 234l-166 -7l-2 -299v-50q0 -94 6 -124q10 -25 8 -34q2 -8 -3 -19.5t-29 -11.5q-59 0 -215 65q-167 68 -181 111z" />
<glyph unicode="I" horiz-adv-x="600" d="M74 182q33 45 41 226l32 782q2 35 3 63q0 55 -9 76q-8 18 -7 30q0 19 22 19q82 0 305 -108q84 -41 92 -62q1 -3 1 -6q0 -10 -9 -24q-23 -43 -37 -316l-33 -760q0 -41 4 -59q8 -21 8 -34q0 -19 -18 -19q-80 0 -214 65.5t-181 126.5z" />
<glyph unicode="J" horiz-adv-x="1001" d="M-59 473q63 57 178 57q109 0 119 -28q4 -8 0 -19l8 -47q20 -53 69 -104q57 -57 107 -58q68 0 92 164q12 88 16 332q0 40 1 77q0 184 -9 290l-16 182q-8 20 -8 35q0 25 30 24q68 0 281 -92q133 -58 133 -82q0 -7 -8 -22q-22 -43 -22 -211q0 -39 1 -84l9 -434v-40 q0 -181 -35 -272q-59 -158 -240 -157q-231 0 -469 190q-176 141 -227 275z" />
<glyph unicode="K" horiz-adv-x="1144" d="M98 133q0 -2 4 45l7 51l10 191l-6 854q0 27 -4 43l-7 35q-6 29 35 28q55 0 262 -71q127 -44 127 -84q0 -5 -2 -11l-12 -30q-2 -4 -3 -19.5t-3 -23.5l-4 -54l-8 -196l143 235l41 78l37 74q12 29 12 39l-2 35q-2 23 25 22q59 0 221 -78q156 -74 168 -106q6 -16 -11 -33 l-30 -22l-29 -33l-22 -35l-203 -297q-35 -51 -35 -92q0 -47 90 -174l139 -195q74 -82 156 -186q2 -4 2 -9q0 -35 -98 -77q-111 -47 -221 -47q-47 0 -58 26l-4 25l-4 10q-4 12 -45 76l-35 51l-235 334l10 -371q0 -37 12 -108q5 -15 5 -25q0 -24 -27 -24q-57 0 -215 55 q-171 57 -183 94z" />
<glyph unicode="L" horiz-adv-x="843" d="M70 276q-2 6 -2 14.5t2 18.5q8 41 20 144l12 112l39 471l4 113q-1 8 0 18q0 31 5 80q4 35 -3 51l-12 33q-12 35 21 35q82 0 274 -80q119 -49 131 -80q4 -12 -8 -57q-29 -94 -55 -389q-27 -285 -27 -436v-21l279 -8q35 0 116 -117q57 -84 80 -145q5 -14 6 -24 q0 -19 -22 -19q-10 0 -43 6l-78 4l-160 2l-125 -2q-16 0 -55 -4l-41 -4q-49 0 -205 131q-139 116 -153 153z" />
<glyph unicode="M" horiz-adv-x="1576" d="M10 178q35 88 60 230l149 909q0 18 -2 37q-8 20 -4 26q2 4 18 6q106 0 422 -129q131 -53 142 -81q-4 -43 -9 -109l15 -354q2 -6 8 -11q2 2 4 2.5t4 6.5l127 624q-4 43 21 43q68 0 280 -84q221 -86 238 -131q4 -10 2 -24q-13 -70 -13 -317q0 -62 1 -134q4 -371 20 -534 l12 -111l4 -25l13 -24q0 -4 -2 -10l-19 -4q-92 0 -225 47t-199 104q23 63 27 234l12 442q0 10 -10 10q-2 0 -6 -4l-92 -446q-6 -23 -15 -62q-12 -61 -16 -92l-10 -82q-8 -63 -9 -72l3 -39q0 -39 -35 -38q-57 0 -199.5 61t-196.5 104v64l-2 127l-30 498l-11 10l-6 -6 l-63 -424q-16 -125 -23 -250l-4 -68l4 -55q4 -39 -16 -39q-61 0 -193 66q-123 61 -176 108z" />
<glyph unicode="N" horiz-adv-x="1130" d="M80 131v21q14 78 22 219l50 716q3 48 2 83v32l-2 98l-2 29l-9 21q-4 12 0 18q2 4 25 4q86 0 229 -33q117 -27 158 -42t74 -44q-3 -20 -3 -45q0 -57 13 -145l51 -358q2 -12 14 -13q6 0 9 8l14 551q0 59 -2 68l-4 8l-4 8q-8 27 24 27q43 0 217 -68l76 -28q54 -21 54 -37 q0 -8 -11 -43q-10 -47 -12 -53l-27 -244l-32 -549l-7 -238v-13q0 -40 11 -77q6 -25 -21 -24q-37 0 -142.5 24.5t-185.5 50.5q-111 39 -122 74q-2 8 -5 37l-10 74l-8 78l-61 403q-2 12 -11 12q-8 0 -8 -8l-10 -422q0 -21 -1 -40q0 -161 30 -281q-98 14 -226 61 q-133 51 -147 80z" />
<glyph unicode="O" horiz-adv-x="1220" d="M61 510q-1 24 0 47q0 82 11 154q43 266 176 520l35 92q31 72 45 72q43 0 209 -76q141 -63 208 -102q156 -31 256 -93q109 -66 144 -168q21 -63 21 -183q0 -20 -1 -42q-4 -164 -49 -336q-57 -225 -139 -321q-88 -102 -221 -103q-199 0 -437 142q-186 111 -231 231 q-21 55 -27 166zM471 512q-4 -40 -4 -74q0 -145 70 -196q37 -29 71 -29q109 0 170 293q35 174 43 293q1 21 1 41q0 159 -72 217q-37 29 -76 28q-59 0 -99 -100q-8 -18 -43 -147q-49 -189 -61 -326z" />
<glyph unicode="P" horiz-adv-x="1046" d="M-59 1307q92 25 241 49q162 27 244 26q129 0 262 -77q111 -63 211 -183q162 -190 162 -319q0 -115 -105 -221q-43 -45 -81.5 -77t-139.5 -73q-88 -39 -88 -37q-23 -8 -37 -8q-20 0 -67 43l-60 55l2 -290q0 -104 17 -146q9 -23 8 -36q0 -23 -23 -23q-74 0 -225 73 q-66 33 -98 56q-68 45 -68 84q0 6 2 16q12 55 13 115l14 706q-143 158 -174 238zM489 725q78 39 150 102q92 84 92 150q0 86 -131 86q-61 0 -100 -19z" />
<glyph unicode="Q" horiz-adv-x="1220" d="M39 600q0 57 8 125q20 201 92 352l109 228q16 35 16 38l2 25q-2 23 39 23q63 0 189 -48q106 -43 178 -83h26q74 0 229.5 -81t194.5 -200q17 -54 17 -183q0 -47 -2 -104q-20 -446 -179 -626q-66 -74 -167 -74q-14 0 -103 8q0 -10 3 -20l7 -25l13 -33l6 -20q-31 -6 -43 -8 q-72 0 -144 59l-2 102q-176 78 -266 138q-150 100 -194 217q-29 75 -29 190zM449 453q0 -74 14 -115q10 -25 49 -66l-10 111q35 4 39 4q57 0 123 -37l-2 -12l-3 -47q-2 -35 5 -62q57 35 90 136q12 43 34 163q35 184 35 310q0 184 -84 252q-37 31 -77 30q-74 0 -121 -125 q-18 -49 -45 -184q-47 -227 -47 -358z" />
<glyph unicode="R" horiz-adv-x="1138" d="M-80 1356q31 0 68 6q244 39 397 39q270 0 422 -131q88 -74 170 -185q125 -170 125 -258q0 -152 -260 -276q195 -297 286 -365q43 -31 50 -47q2 -5 1 -9q0 -23 -38 -50q-53 -35 -121 -66q-78 -35 -105 -34q-39 0 -63 38l-10 25l-167 220q-95 128 -143 198h-28l10 -352 q0 -41 4 -54l17 -39q14 -39 -27 -39h-16l-25 7l-72 18l-129 43q-131 43 -151 96q2 -2 6 127v47v76l2 651q-156 168 -193 277zM504 809q70 23 131 61q84 53 84 109q0 78 -119 78q-41 0 -96 -6v-242z" />
<glyph unicode="S" horiz-adv-x="1058" d="M-14 264q-3 7 -4 18q0 40 53 120q66 101 106 102q25 0 43 -37q72 -59 191 -115q135 -63 211 -63q31 0 47 19.5t4 47.5q-16 45 -154 136q-92 57 -258 182q-112 103 -112 267q0 28 4 58q12 115 59 226l33 75q6 14 12 46q2 23 16.5 33t45.5 10q74 0 153 -33l160 -66 q201 -53 285 -100q121 -68 123 -213l2 -100q0 -43 -2 -50q-6 -20 -39 -20q-61 0 -179 33q-133 37 -147 75q-4 12 3 33t7 78v55q-4 27 -23.5 41.5t-33.5 14.5q-33 0 -60 -117q-10 -47 -9 -87q0 -110 73 -175q35 -31 176 -121q186 -119 227 -225q23 -57 23 -113 q0 -90 -59 -176q-92 -137 -254 -137q-209 0 -496 139q-211 102 -227 139z" />
<glyph unicode="T" horiz-adv-x="839" d="M-70 1366q0 8 15 8q20 0 35 -4l53 -2l145 -4h453q16 8 31 8q37 0 77 -61l52 -90q53 -94 67 -136q7 -16 7 -26q0 -15 -15 -15l-21 7q-35 10 -98 12l-106 4l-2 -31l-5 -116l3 -109l6 -387q0 -25 4 -102l2 -91l6 -96q6 -78 16 -106q14 -39 -8 -39l-18 2l-66 10 q-57 8 -168 49q-129 45 -143 76l-2 12l2 60l2 110q2 88 2 113l-4 649h-141l-15 -8q-18 0 -73 92q-43 74 -60 117l-24 59z" />
<glyph unicode="U" horiz-adv-x="1161" d="M90 592q2 133 35 436q16 160 16 237q0 48 -6 64q-8 23 -6 33q6 10 29 10q63 0 286 -100l9 -4q117 -53 129 -86q6 -16 -4 -37l-17 -33q-8 -10 -12 -61l-12 -127l-25 -254l-10 -209q-1 -15 -1 -28q0 -61 15 -101q8 -25 29.5 -41.5t46.5 -16.5q51 0 72 103q45 221 53 614 q2 143 2 139q0 57 -2 76q-4 49 -31 115q-12 37 23 37q68 0 233 -74q176 -78 195 -127q2 -6 2 -12q0 -12 -9 -23l-18 -28q-6 -8 -12 -181q-2 -35 -10 -161l-21 -291q-18 -258 -84.5 -364.5t-202.5 -106.5q-166 0 -386 101.5t-283 273.5q-23 55 -23 202v25z" />
<glyph unicode="V" horiz-adv-x="1079" d="M49 1356q-2 5 -2 9q0 10 10 17q6 6 21 7q78 0 237 -54q176 -59 197 -112q2 -8 0 -19l-12 -45q-10 -43 -13 -297q0 -260 9 -366l8 -72q2 -10 6 -10q4 2 6 6l170 758q18 82 18 122q0 11 -2 19q-6 37 -6 43q2 10 21 10q49 0 219 -84q185 -92 185 -126q0 -10 -11 -25 q-53 -74 -90 -199l-225 -793q-23 -78 -23 -108q0 -63 -37 -64q-29 0 -117 29q-98 31 -159 59l-189 84q-113 51 -129 91q-6 18 0 45q2 33 2 88q0 41 -4 135l-26 442l-19 195q-14 137 -24 162z" />
<glyph unicode="W" horiz-adv-x="1548" d="M53 1337q-2 9 -2 16q0 28 39 27q90 0 237.5 -47t164.5 -82l-3 -12l-22 -176l4 -242l8 -182l2 -6q2 -6 8 -8q6 4 5 8l81 590q9 58 9 79q0 7 -1 20.5t-1 19.5q0 51 22 51l21 -4l96 -27q27 -6 113 -43l122 -51q18 -6 64 -35q20 -14 27 -31q2 -8 -3 -53q-5 -58 -4 -121 q0 -75 7 -158l16 -223q0 -6 8 -10q4 2 6 6l76 541q2 31 7 68.5t3 62.5q-6 23 -6 36q0 23 17 23q35 0 135 -53q84 -43 133 -76q116 -79 115 -105q0 -10 -13 -30q-6 -6 -18 -41l-31 -98q-23 -78 -57 -236l-62 -289q-58 -261 -57 -374q0 -31 4 -52q10 -39 -18 -38 q-94 0 -338 98q-152 61 -170 113q2 25 2 65q2 12 0 43l-2 135l-9 150l-10 112q-2 10 -8 11q-4 -2 -6 -7l-57 -368q-4 -37 -15 -111q-4 -29 -10 -94l-2 -70l-2 -30q6 -33 -14 -33q-10 0 -33 6l-101 27q-76 20 -213 80q-168 72 -182 108q-6 14 0 37q11 43 12 120q0 61 -8 144 l-59 666q-4 41 -10 94z" />
<glyph unicode="X" horiz-adv-x="964" d="M-23 1292q0 68 244 68q145 0 162 -41v-12q4 -66 25 -113l12 -29l63 -143l129 264q8 16 6 27l3 26q2 14 20 15q45 0 191.5 -98.5t160.5 -139.5q4 -8 -26 -22q-37 -20 -52 -45l-34 -58l-219 -344l131 -239q123 -229 204 -310q16 -16 21 -28q2 -6 2 -12q0 -56 -242 -56 q-147 0 -168 59l-35 101l-18 39l-70 145l-88 -156l-39 -81q-16 -35 -16 -52q-2 -51 -27 -51q-57 0 -181 99.5t-144 156.5q-10 25 24 37l41 61l58 82l180 283l-209 393q-29 55 -41 70l-49 61q-19 23 -19 43z" />
<glyph unicode="Y" horiz-adv-x="923" d="M-86 1319q-10 29 92 43q70 10 127 10q115 0 148.5 -10t42.5 -31q2 -8 0 -8l-2 -25q0 -20 16 -59l129 -326l53 283l10 84q6 43 5 53q-4 39 22 39q43 0 129 -39q12 -4 25 -10l139 -66q107 -50 107 -74q0 -10 -23 -30q-10 -16 -21 -45l-51 -147q-57 -166 -133 -517 q-65 -297 -65 -372q0 -11 2 -17l8 -37q6 -27 -31 -26q-66 0 -217 63q-160 66 -178 113q-4 10 8 29q45 70 63 139l33 121l-332 671q-61 127 -88 162q-8 11 -18 29z" />
<glyph unicode="Z" horiz-adv-x="960" d="M-31 1341q-5 12 -4 20q0 13 12 13l17 -4q39 -8 67 -8l127 2l152 -2l170 4q63 0 137 6l27 2q16 2 80 -88q115 -160 157 -276q-78 -66 -192 -273l-242 -430l303 15q4 0 13 4l12 6q29 0 110 -131q70 -113 91 -166q4 -13 4 -22q0 -25 -33 -25q-16 0 -23 2q-63 8 -186 10 l-350 2q-106 0 -144 -10l-18 -2q-35 0 -122 112.5t-122 206.5l-10 29q59 61 107 145l317 574l-193 -4l-53 -21q-25 2 -101.5 111.5t-109.5 197.5z" />
<glyph unicode="[" horiz-adv-x="628" d="M94 1401q-18 51 15 51l12 -2l20 -4q49 -10 101 -10q43 0 123 12q33 -29 77 -84q47 -61 62 -96q14 -41 -8 -41q-4 0 -13 2h-10l-31 6h-10q-14 -90 -18 -213l-35 -961h53q41 -35 92 -96q66 -76 66 -108q0 -18 -23 -19q-6 0 -22 4q-49 12 -101 13q-76 0 -104 -5l-29 -4 q-37 0 -100 91q-47 63 -74 120q12 35 15 86l4 82l4 94l30 834q2 68 -2 98q-65 74 -94 150z" />
<glyph unicode="\" horiz-adv-x="911" d="M350 1309q0 20 42 40.5t93 20.5q102 0 103 -35l-2 -14l-6 -57l-2 -80l-5 -82l2 -76l21 -715q6 -182 22 -286l15 -86q6 -37 18 -68l4 -10q0 -35 -139 -35q-109 0 -108 49l2 21q10 109 8 307l-2 151l-21 512q-6 172 -22 303l-11 86q0 8 -8 37z" />
<glyph unicode="]" horiz-adv-x="630" d="M-10 1417q-12 35 16 35q4 0 25 -4q35 -10 96 -10h49q49 0 57 4l29 2q68 4 176 -211q-14 -33 -16 -86l-4 -82l-2 -94l-33 -834q0 -59 4 -96q63 -76 92 -154q18 -49 -14 -49h-6q-4 2 -6 2l-21 6q-29 8 -98 9q-39 0 -123 -13q-109 96 -141 183q-14 39 10 38q14 0 20 -2 l33 -4h8q4 31 13 127l6 86l37 961h-56q-49 37 -112 121q-29 38 -39 65z" />
<glyph unicode="^" horiz-adv-x="1024" d="M33 721l313 651h332l313 -651h-264l-215 450l-215 -450h-264z" />
<glyph unicode="_" horiz-adv-x="1024" d="M-268 -104h1024v-211h-1024v211z" />
<glyph unicode="`" horiz-adv-x="1024" d="M479 1368q-12 31 64 31h123l20 2h12q14 0 35 -27l189 -246q16 -41 -80 -41q-37 0 -72 11l-20 18l-91 82l-94 88l-43 37q-39 35 -43 45z" />
<glyph unicode="a" horiz-adv-x="989" d="M-12 354q0 72 12 164q33 213 115 383q45 96 53 148l22 2q14 0 54 -9q109 -31 188 -90q59 0 121 -22l-6 53q-12 10 -15 16q-6 20 21 21q53 0 176 -41q150 -49 150 -84q0 -6 -11 -18q-12 -14 -12 -80v-80l-4 -88l2 -500q2 -37 4 -86l10 -31q10 -33 -39 -32q-57 0 -163 32 q-119 37 -138 76q-3 6 -2 20q0 18 4 50l15 100l-4 6q0 6 -9 8q-2 0 -4 -4l-4 -16q-23 -90 -86 -171t-102 -81q-57 0 -174 59q-100 51 -139 119q-35 61 -35 176zM315 383q-6 -52 -5 -91q0 -113 49 -113.5t106 192.5q45 154 64 268q13 75 13 126q0 27 -3 46l-4 12 q-12 33 -56 39q-45 0 -110 -223q-10 -35 -29 -127q-11 -39 -25 -129z" />
<glyph unicode="b" horiz-adv-x="956" d="M70 156l10 28l4 62l10 274l4 721q0 47 -6 71.5t-6 33.5q-2 12 0 22q6 8 33 8q53 0 182 -39q141 -43 154 -75q4 -8 -8.5 -34t-14.5 -42l-33 -461q2 -10 13 -12l4 4l2 14q57 291 137 291q63 0 188 -59q133 -61 152 -113q2 -4 2 -43l2 -39q1 -132 1 -206t-1 -89 q-6 -129 -31 -256q-47 -236 -131 -235q-23 0 -95.5 20.5t-119.5 40.5q-72 31 -119 72q0 -27 8.5 -61t8.5 -46q0 -20 -25 -20q-57 0 -178 51q-129 53 -145 98q-4 11 -2 19zM408 229q4 -6 9 -15t19.5 -22.5t32.5 -13.5q47 0 86 176q20 90 31 205q5 43 4 126v60l-2 52l-4 24 q-10 25 -31 25q-18 0 -70 -160q-47 -141 -67 -272q-14 -85 -14 -135q0 -32 6 -50z" />
<glyph unicode="c" horiz-adv-x="901" d="M-25 391q0 164 84 381q47 121 78 161t31 75q0 25 25 24q70 0 177 -31.5t160 -70.5q88 -8 172 -52t107 -104q11 -33 11 -106q0 -21 -1 -45l-2 -39l2 -35q2 -25 -33 -25q-170 0 -294 97q16 43 22 79l8 68v31q2 31 -24 49q-14 10 -29 10q-39 0 -100 -209q-27 -94 -47 -211 q-13 -86 -14 -140q0 -45 9 -69q10 -27 34 -43t48 -16q84 0 109 137q6 33 17.5 45.5t33.5 12.5q47 0 109 -19l98 -29q33 -10 39 -22q2 -8 -4 -19l-8 -14l-13 -37q-41 -119 -113.5 -184.5t-166.5 -65.5q-150 0 -326 101q-104 59 -151.5 130.5t-47.5 184.5z" />
<glyph unicode="d" horiz-adv-x="983" d="M53 442q6 98 50 257t92 241q16 33 16 47l-2 27q-2 25 35 24q72 0 178 -40t168 -85l4 312l-2 55q-4 92 -8 88q4 8 26 8q20 0 41 -4l105 -22l114 -31q66 -16 78 -49q3 -9 3 -17q0 -10 -5 -18l-12 -31q-25 -57 -25 -310v-40v-506q0 -215 15 -293l8 -32q6 -41 -31 -41 q-74 0 -215 45q-78 25 -88 51q-2 6 -4 22l10 170q-4 8 -10 9q-2 0 -4 -5l-4 -16l-21 -86q-45 -184 -143 -184q-90 0 -206 78.5t-148 162.5q-17 45 -18 133q0 36 3 80zM387 231q0 -10 8 -32q12 -33 37 -33q51 0 107 229q16 74 34 226q14 109 14 165q0 36 -5 50q-14 37 -54 38 q-2 0 -5 1q-27 0 -46 -64l-31 -102q-53 -174 -57 -406z" />
<glyph unicode="e" horiz-adv-x="925" d="M-27 406q0 66 15 149q41 264 116 391q18 29 19 43v23q4 23 39 22q94 0 297 -67l30 -11q131 -27 209 -82q137 -97 137 -325q0 -38 -4 -80q-4 -47 -43 -47l-124 2l-273 -6q-25 -4 -67 -6q-6 -57 -7 -99q0 -43 9 -67q20 -55 67 -56q57 0 123 103q20 31 57 31q57 0 153 -35 q108 -40 108 -66q0 -11 -15 -28l-22 -33q-53 -76 -145.5 -130.5t-180.5 -54.5q-129 0 -276 84q-156 88 -199 201q-23 58 -23 144zM358 635h150q6 35 6 88v55q-2 90 -59 90q-33 0 -56 -57q-14 -41 -39 -162z" />
<glyph unicode="f" horiz-adv-x="641" d="M-61 1030h182l4 121l8 84q3 46 3 72q0 13 -1 20q-1 6 -1 11q0 40 71 40h47q29 -6 53 -8l66 -8l108 -12q129 -14 197 -54q109 -61 108 -200q-45 -18 -75 -19q-37 0 -100.5 21.5t-90.5 50.5q16 34 17 60q0 13 -5 24q-10 29 -36 29q-25 0 -33 -56l-12 -78l-7 -94l64 -2 q41 -2 69 -51l31 -57q12 -23 39 -93q18 -47 -10 -47l-33 9q-10 0 -31 2l-24 2l-119 2l2 -23q-1 -57 -1 -128q0 -144 3 -349l8 -176q2 -74 13 -100l4 -13q2 -6 4 -14q-4 -10 -21 -10q-88 0 -235 65q-76 33 -90 72v98l2 68v506l-43 -4h-15l-16 8q-51 66 -92 174q-8 22 -12 57z " />
<glyph unicode="g" horiz-adv-x="983" d="M-139 -141q0 47 94 94q68 33 92 33q29 0 41 -25l14 -22q27 -39 115 -90.5t133 -51.5q90 0 101 207l4 86l10 160q0 8 -6 8q-2 0 -6 -4l-7 -18q-35 -123 -75 -183q-49 -72 -103 -71q-55 0 -155 45q-123 55 -169 133t-46 211q0 94 22 209q41 197 164 395l16 26q8 23 31 23 q25 0 103.5 -26.5t123.5 -49.5l91 -45l22 -10l-2 51l-6 27l-4 16l-8 19q2 4 8 8l10 2q53 0 190 -47q160 -56 161 -90q0 -3 -7 -7l-12 -6q-18 -6 -27 -145l-10 -195l-6 -204l-2 -420q-2 -205 -27 -264q-43 -102 -186 -103q-190 0 -475 150q-207 108 -207 174zM244 356 q-5 -45 -5 -79q0 -121 56 -121q47 0 100 198q76 279 76 391q0 33 -6 54q-19 47 -58 47q-55 0 -116 -236q-35 -135 -47 -254z" />
<glyph unicode="h" horiz-adv-x="952" d="M76 129q-3 6 -3 16.5t3 24.5l10 45l2 72l21 948q0 31 -5 74q-3 19 -3 33q0 33 18 34l12 -2l51 -10q68 -14 152 -43q117 -41 129 -74q4 -14 0 -22l-12 -25q-14 -23 -21 -117l-14 -215l-4 -88l-6 -112l2 -6q2 -6 6 -7q4 2 6 7l2 16q12 98 51 215q25 72 31 82q25 43 65 43 q84 0 178.5 -44t114.5 -100q27 -80 27 -219v-39l-15 -520q-2 -39 0 -51q2 -18 3 -30q0 -32 -15 -33l-8 2l-68 14q-80 16 -169 57t-97 62q-2 4 0 20l17 127l14 174q13 172 13 263q0 54 -5 79l-4 21q0 10 -6 10q-4 0 -6 -2l-6 -14q-41 -86 -95 -406q-37 -213 -36 -305 q0 -39 6 -55l6 -15q6 -18 -12 -18l-15 2l-86 22q-53 14 -125 43q-94 39 -104 66z" />
<glyph unicode="i" horiz-adv-x="481" d="M63 125q-1 3 -1 11q0 16 6 50q2 20 8 70l2 78l22 393l4 229q0 20 -6 39l-6 17q-8 23 31 22q43 0 168 -49l98 -39q41 -16 47 -31q2 -10 -2 -20l-6 -18q-4 -12 -6 -48l-6 -102l-13 -348q-4 -117 -3 -186q0 -46 1 -72l5 -76l2 -31q12 -29 -9 -28q-72 0 -198 53t-138 86z M109 1147q14 71 13 125q0 27 -3 49q-8 45 20 45q45 0 154 -35q117 -39 131 -67l2 -19l-8 -35l-4 -67l-2 -60q4 -49 -23 -53q-51 0 -149 40t-131 77z" />
<glyph unicode="j" horiz-adv-x="497" d="M-465 -186q0 35 64 77q80 53 149 54q29 0 35 -17l6 -16q16 -31 66.5 -65.5t83.5 -34.5q37 0 53 113.5t18 428.5l-6 520q-2 49 -18 115q-14 39 22 39q49 0 209 -63q154 -63 154 -96q0 -6 -2 -15l-11 -12q-2 -2 -4 -41l-8 -84q-6 -84 -6 -172v-142l6 -528v-17 q0 -146 -33 -218q-51 -109 -192 -109q-90 0 -219 49q-121 45 -230 123l-94 68q-43 23 -43 43zM6 1149q-1 3 -1 8.5t1 13.5l6 46q7 58 7 101q0 36 -5 62l27 9q41 0 161 -47.5t130 -75.5q1 -2 1 -8t-1 -15l-4 -49l-4 -88v-49q2 -37 -25 -37q-31 0 -96 31q-49 23 -101 39 q-84 26 -96 59z" />
<glyph unicode="k" horiz-adv-x="919" d="M78 94q-2 5 -2 11t2 12q4 6 6 51l2 59l16 971q1 45 1 70.5t-1 31.5q-2 16 -8 43q-2 37 23 37q72 0 182 -41q104 -37 170 -79l-53 -584l151 305q-8 41 15 41q39 0 161 -75q135 -82 136 -108q0 -6 -37 -59q-45 -59 -51 -69l-66 -136q-19 -41 -19 -62q0 -38 46 -107l34 -54 l50 -84l51 -73l33 -45l32 -37q10 -12 15 -21q2 -5 1 -10q0 -30 -61 -62q-78 -41 -147 -40q-39 0 -43 -3l-37 -8q-33 0 -43 35l-21 55q-12 20 -16 31l-176 336l6 -246q2 -106 8 -133l13 -41q10 -29 -27 -29q-41 0 -92 13q-63 14 -121 35q-125 44 -133 69z" />
<glyph unicode="l" horiz-adv-x="493" d="M82 158l16 874q1 42 1 79q0 166 -15 228q-4 12 -4 21q0 5 2 8q6 4 35 4q74 0 164 -41l108 -49q59 -27 53 -57l-6 -25q-14 -72 -16 -264v-184l-2 -453q0 -231 16 -274q14 -39 -20 -39q-66 0 -191 49t-137 80q-5 12 -5 30q0 6 1 13z" />
<glyph unicode="m" horiz-adv-x="1380" d="M2 1022q4 10 37 10q106 0 244 -55l41 -16q23 -8 26 -21q4 -10 -6 -18q-2 -41 -2 -64q0 -14 -4 -61l-8 -142l2 -4q2 -6 6 -8q6 4 4 4l4 15q37 193 78 284q27 61 53 62q61 0 160 -37q111 -41 129 -88q12 -35 14 -72l4 -68l2 -38v-17q2 -8 11 -10q2 2 6 4l2 16 q14 115 37 185l32 104q10 31 33 31q76 0 186.5 -48t127.5 -93q27 -70 27 -331q0 -35 -1 -73l-4 -463q2 -23 -20 -22q-61 0 -195 49q-121 45 -131 74q-4 8 0 26l8 39q27 133 27 348l2 230q0 20 -6 71v15q-2 12 -15 12q-4 0 -6 -6l-6 -12l-12 -58l-45 -174q-25 -92 -47 -291 q-17 -150 -18 -231q0 -34 3 -55q4 -39 -26 -39q-39 0 -195 65l-57 29q-60 31 -60 60q0 14 9.5 83t13.5 133l14 183q0 100 6 274v18q0 12 -12 15l-6 -4l-8 -17q-63 -129 -103 -432q-14 -111 -13 -199q0 -95 15 -165q10 -43 -14 -43q-70 0 -193.5 49t-136.5 82q-4 6 0 26 q2 14 7 95l4 57v502q0 33 -4 94l-5 67q-2 20 -6 31l-6 19z" />
<glyph unicode="n" horiz-adv-x="931" d="M12 1004q-1 6 -1 10q0 16 16 16l32 -6l84 -25l115 -38q63 -20 74 -50q4 -8 -4 -28l-2 -35l-9 -186l-4 -44l2 -38l2 -7q0 -2 5 -6q6 4 4 8l4 15l6 53q20 170 55 271.5t80 107.5q16 0 115 -31q158 -49 188 -127q16 -43 23 -235q4 -93 4 -185t-4 -182q-2 -61 -2 -108 q0 -95 8 -136q1 -6 1 -10q0 -22 -30 -22q-70 0 -201 47q-121 43 -131 69q-4 10 4 27q18 39 29 264l8 164v123l-6 127v22q-2 12 -10 13l-6 -4l-6 -11l-15 -39l-24 -67q-29 -86 -62 -385q-18 -156 -18 -203q0 -55 16 -129l2 -14l-22 -6q-53 0 -170 41q-127 45 -142 81 q-2 8 -2 27l2 39l5 72l2 45l2 571q-1 83 -17 144z" />
<glyph unicode="o" horiz-adv-x="929" d="M-14 416q0 100 24 225q33 174 105 307q12 25 9 53.5t32 28.5q47 0 145 -24q90 -25 143 -48q102 0 218 -65q102 -59 131 -135q14 -37 22 -150q3 -47 3 -90q0 -59 -5 -112q-14 -160 -63 -271q-74 -158 -205 -158q-141 0 -340 101q-156 78 -197 186q-22 60 -22 152zM326 440 q0 -15 -1 -28q0 -237 99 -238q78 0 108 217q23 169 23 253q0 233 -106 233q-57 0 -95 -168q-26 -119 -28 -269z" />
<glyph unicode="p" horiz-adv-x="940" d="M-55 -115l12 35q16 53 16 354v691l-8 43q-4 20 17 20q68 0 170 -31q92 -29 143 -63q-14 -70 -16 -172l-3 -66l3 -8q2 -6 8 -6l2 4l6 19l10 67q20 115 60 207q12 27 51 27q125 0 239 -66q55 -31 76 -88q37 -96 43 -254q2 -40 2 -80q0 -118 -18 -228q-25 -146 -41 -190 q-43 -119 -129 -118q-106 0 -316 124l4 -155q4 -113 21 -205q6 -27 -21 -27q-76 0 -225 60q-109 43 -109 92q1 7 3 14zM287 262q6 -88 65 -88q63 0 86 191q25 215 25 331q0 86 -12 133l-9 23l2 2l-4 8q-6 6 -14 6q-10 0 -12 -8l-13 -16q-2 -2 -20 -68l-39 -139 q-33 -121 -47 -248q-9 -80 -9 -115q1 -7 1 -12z" />
<glyph unicode="q" horiz-adv-x="989" d="M-90 358q0 352 172 631q8 14 6 29l27 10q8 4 32 4q57 0 162 -39q96 -33 154 -69l4 32l-2 17l-4 18q-8 20 28 21q49 0 181 -41q154 -49 154 -78q0 -9 -15 -10q-31 -160 -37 -336l-16 -627q0 -248 26 -315q14 -39 -22 -39q-55 0 -199 55q-152 59 -166 96q-4 10 15 62 q8 37 10 76l26 362q-2 6 -8 6l-2 -4l-8 -14q-61 -129 -80 -158q-39 -59 -80 -59q-47 0 -149 47q-154 72 -189 162q-20 52 -20 161zM242 256q4 -88 51 -88q63 0 125 289q34 156 33 282v39q-2 98 -60 103q-37 0 -96 -240q-37 -145 -47 -266q-7 -75 -7 -106q1 -8 1 -13z" />
<glyph unicode="r" horiz-adv-x="720" d="M-4 117q10 12 12 33l4 75l6 94l7 97l8 360q1 18 0 34q0 116 -25 181q-16 41 21 41q59 0 166 -28q123 -33 143 -68q6 -14 -2 -25l-10 -12l-7 -29l-6 -51l-4 -61l-6 -82l2 -4l4 -4q2 -2 4 -2l4 2l5 12l10 43q20 86 59 164l31 57q8 16 8 31v26q0 20 29 21q49 0 146 -56.5 t114 -99.5q4 -9 4 -16t-4 -12q-6 -10 -27 -9l-59 5q-6 0 -19 -5q-68 -23 -133 -122q-53 -80 -82 -166q-33 -96 -57 -258q-18 -121 -18 -183q0 -20 2 -34l10 -58q2 -18 -19 -18q-61 0 -167.5 43t-153.5 84z" />
<glyph unicode="s" horiz-adv-x="847" d="M-80 236q0 29 57 75q37 31 61.5 43.5t55.5 12.5q16 0 27 -19q31 -45 145.5 -96t171.5 -51q41 0 41 26q0 39 -106 92q-121 59 -213 137.5t-117 139.5q-20 53 -20 129q0 23 2 49q8 109 77 221q8 27 21 37q4 6 14 6q4 2 29 2q129 0 309 -94h-2q96 -12 175 -59t102 -107 q12 -31 14 -172v-22l4 -19q2 -4 2 -7q0 -11 -20 -11q-57 0 -201 55q-82 31 -92 55q-2 6 4 25q11 37 11 70t-11 63q-14 37 -45 37t-51 -78q-9 -34 -10 -65q0 -64 40 -115q41 -53 154 -117q125 -72 170 -131q39 -49 39 -112q0 -51 -29 -111q-66 -145 -246 -145 q-166 0 -391 114q-172 89 -172 142z" />
<glyph unicode="t" horiz-adv-x="595" d="M-55 942q-12 32 -12 50q0 24 20 24l47 -6l129 -6l-4 100l-4 53l2 27l-17 30q-2 6 3 17q16 16 43 16q47 0 127 -26l110 -37q72 -24 72 -39q0 -9 -12 -64q-16 -70 -17 -73h47l19 2l10 2l10 -4q33 -29 78 -150q12 -33 14 -41t4 -35q-61 6 -174 6h-16v-495l6 -135l6 -103 l10 -41q10 -33 -26 -32q-55 0 -182 53q-137 55 -152 96q-2 4 2 27q20 66 21 327q0 109 4 152q7 80 6 124v19h-51l-25 -2l-18 8q-29 23 -80 156z" />
<glyph unicode="u" horiz-adv-x="929" d="M16 391q-1 33 0 65q0 144 15 273l14 111q6 51 6 85q0 37 -7 56q-13 35 -11 43q2 12 22 12q47 0 119 -28l125 -50q76 -31 84 -53q4 -6 -4 -22q-31 -57 -45 -355l-8 -174l2 -63l2 -21q0 -10 12 -14q6 4 8 6l6 19q35 88 68 219q37 156 51 284l17 150q2 16 1 29q0 20 -4 36 q-6 25 17 25q49 0 177 -46q143 -51 143 -83q0 -6 -5 -16l-10 -23q-4 -8 -8 -37l-10 -127l-13 -422q-1 -38 -1 -72q0 -123 18 -186q8 -33 -25 -32q-84 0 -184 43q-92 39 -109 79q-2 8 -2 27l19 254q-2 8 -11 8q-2 0 -6 -4l-4 -14l-8 -47q-18 -100 -80 -220q-53 -106 -90 -106 q-31 0 -111 33q-115 47 -145 131q-23 55 -25 227z" />
<glyph unicode="v" horiz-adv-x="792" d="M-63 1010q6 25 53 24q92 0 195.5 -28.5t113.5 -55.5q4 -10 -6 -28q-5 -19 -5 -50q0 -23 3 -53l14 -135l10 -121l15 -155l2 -7q0 -2 6 -8q4 6 4 8l14 82l52 254l38 230q2 14 3 37q-8 29 14 28q43 0 167 -52t136 -85q2 -4 2 -7q0 -8 -9 -15q-13 -9 -32 -62l-35 -96 q-33 -86 -67 -219l-90 -344l-19 -91q-8 -41 -6 -57q8 -23 -16 -22q-76 0 -244 61q-61 23 -100 41q-70 33 -78 53q-2 4 -2 19l2 18l-9 57l-6 80l-49 336l-22 123l-15 117q-6 49 -26 100z" />
<glyph unicode="w" horiz-adv-x="1247" d="M-86 1020q41 14 55 14q10 0 39 -6l129 -29q137 -31 150 -65q4 -8 0 -23l-11 -24q-1 -3 -1 -10q0 -21 10 -82l39 -265q0 -10 10 -12l6 8l47 439q4 16 2 22l-4 23q-2 16 29 16q72 0 200 -45q137 -47 146 -74l2 -20q-2 -15 -2 -35q0 -68 22 -184l13 -64l12 -86q2 -12 10 -12 l2 2l4 6l45 360l2 56l-2 45q-10 33 -8 43q6 10 23 10q51 0 176 -52q136 -57 135 -80q0 -8 -6 -19q-35 -55 -55 -185q-25 -156 -43 -252q-62 -317 -62 -417q0 -18 -3.5 -25.5t-16.5 -7.5q-76 0 -236 61l-113 43q-51 19 -51 49q0 4 0.5 11.5t0.5 10.5t-1 9l-53 354 q-2 12 -12 13q-4 0 -4 -9l-47 -464q-2 -35 0 -50q6 -33 -21 -32q-78 0 -252 63q-125 45 -137 78q-4 10 -2 37q1 9 1 20q0 98 -63 396l-47 227q-33 156 -45 184z" />
<glyph unicode="x" horiz-adv-x="780" d="M-111 188q-2 4 -1 8q0 15 26 29q25 14 43 35q8 12 23.5 31.5l39.5 48.5l82 96l74 92l-106 230l-60 112q-14 31 -41 70l-24 29q-6 18 32 28l84 21q59 14 146 14q57 0 69 -24l11 -43l20 -58l45 -139l60 94q47 76 43 99l-6 28q2 12 18 12q35 0 153 -86q133 -97 132 -125 q0 -14 -31 -24q-16 -10 -51 -51l-82 -101l-105 -122l66 -140q74 -152 125 -223q39 -57 49 -80q2 -4 2 -9q0 -29 -74 -46q-59 -14 -106 -14q-121 0 -144 38l-4 19l-16 45l-21 57l-47 121l-39 -61q-8 -14 -53 -117q-37 -90 -45 -90h-1q-26 0 -149 83q-127 84 -137 113z" />
<glyph unicode="y" horiz-adv-x="921" d="M-117 -121q0 37 51 78q68 55 111 55q20 0 29 -10l6 -10q14 -37 110 -88q90 -49 140 -49q41 0 59 34q23 43 25 119l2 66l14 278q-4 8 -10 8q-2 0 -4 -4l-6 -22l-25 -92l-43 -133q-31 -94 -80 -95q-72 0 -171 65.5t-126 133.5q-26 68 -25 185q0 52 5 114q0 12 6 197l8 149 q3 56 3 90t-3 45q-8 45 29 45q51 0 180 -47q137 -51 151 -84q2 -8 -8 -18l-12 -15q-8 -10 -10 -36l-10 -121l-9 -162q-5 -92 -4 -170q0 -58 2 -109v-18q0 -10 19 -14l4 2l10 14l10 39l37 123q25 90 45 268q13 119 13 194q0 45 -5 74l-6 37q-4 29 19 29q43 0 135 -35l94 -37 q96 -37 109 -67q2 -4 1 -10q0 -16 -12 -46q-25 -66 -26 -436l-2 -448q0 -203 -45 -260q-59 -78 -197 -78q-86 0 -229.5 48t-227.5 105l-92 64l-20 12q-19 16 -19 43z" />
<glyph unicode="z" horiz-adv-x="784" d="M-92 1018q-1 4 -1 7q0 7 7 7l18 -2h142l155 2l179 4q18 0 28 2q4 0 17 2h14l22 2q39 0 91 -86l71 -120q23 -37 41 -84q10 -29 -2 -43l-59 -60q-35 -35 -123 -155l-82 -111l-88 -117l231 -4l43 2q43 2 60 10q25 -16 59 -69l33 -53q14 -29 22 -50q32 -84 32 -108 q0 -10 -5 -10l-20 2h-48l-118 10q-72 6 -205 6q-166 0 -236 -12l-12 -2q-39 0 -106 112q-51 84 -76 150q-16 43 -25 90l322 430h-103q-8 0 -90 -8l-41 -4q-29 0 -55 41q-45 70 -53 92q-16 45 -39 127z" />
<glyph unicode="{" horiz-adv-x="921" d="M182 801h8l21 -4q39 0 80 16q51 20 51 53l16 447q4 127 207 127q39 0 221 -29l41 -6q18 0 25 -16l2 -13l4 -14q4 -45 -8 -94q-14 -57 -31 -62l-8 2l-16 9q-41 23 -148 22q-63 0 -65 -43l-13 -399q-2 -74 -135 -90h-8v-5l2 -2l8 -2q92 -6 139 -131q4 -14 11 -43v-61 l-13 -424q6 -16 29 -16q33 0 86 40q72 -47 113 -155l8 -25q2 -8 2 -16q-31 0 -92.5 -12.5t-93.5 -12.5q-84 0 -162 57.5t-109 135.5q-12 33 -10 92l16 424v27q-2 6 -4 16q-14 35 -45 33l-24 -2l-43 -7q-14 0 -23 21l-12 41l-21 51q-26 70 -6 70z" />
<glyph unicode="|" horiz-adv-x="4823" d="M-137 492l108 251q66 -94 135 -94q66 0 66 70q0 18 -84 43q-127 39 -127 180q0 139 95.5 261t230.5 122q104 0 180 -78l-98 -225q-55 66 -117 65q-55 0 -55 -47q0 -29 55 -49q76 -29 100 -53q55 -49 56 -143q0 -147 -86 -260q-96 -123 -238 -123q-125 0 -221 80zM430 424 l102 625h209l-102 -625h-209zM569 1212q0 51 34 96.5t83 45.5q12 4 27 16l8 -4q12 23 43 27l59 8q338 98 707 162q59 14 174 28h151l7 15v2q18 6 47 2q45 -4 49 -4l6 14h41q27 2 41 2q23 0 41 -2q-10 -4 -14 -16q6 -12 16 -13q27 0 18 29q16 8 76 4q94 -4 82 -4l6 12 q18 -8 27 -14l8 2q8 18 23 18q12 0 65 -6q41 -6 68 0q2 -6 10 -14l18 14l7 -12h26l8 -14l13 6v20q14 -12 49 -12l6 12h20l7 -12q10 0 33.5 2t35.5 2q23 0 41 -4q0 -29 14 -29q6 29 48 29l6 -14h35l6 -15q10 6 32 17l9 -2q2 -12 5 -22.5t25 -10.5q10 0 27.5 3t24.5 3l8 12 l-8 8l-9 3l2 4h21l6 -15q35 2 102 2q4 0 107 -26q-16 2 -57 12l-11 -10q0 -14 56 -15q12 0 36.5 2.5t32.5 2.5l8 12q53 0 74 -27q16 14 29 15q12 0 26 -9h-26l-10 -8q12 -29 71 -10l47 -8q29 -6 48 -6l8 -15q14 4 28 4q8 0 23.5 -2t21.5 -2l9 15l-9 8l-8 2l2 2l56 -21 q-14 0 -21 -12q39 -8 115 -20l8 12l-2 4l-27 4l9 6h12l6 -10l2 -4q8 -16 20 -27h48l6 -14q25 6 20 6q37 0 76 -18v-21q-14 12 -41 12l-20 11l-35 -4q-14 0 -54 8l-8 14q-59 6 -71 4l-17 8q-6 0 -25.5 -2t-29.5 -2q-16 0 -41 4l-6 15q-8 0 -29.5 -2t-34.5 -2q-16 0 -32 4 l-7 14q-20 -4 -36 -4q-8 0 -23.5 2t-22.5 2l-6 -14l-12 -4l-22 4l-7 14l-24 -4l-10 4l-7 12q-4 -2 -36 -2l-19 2l-6 -12q-20 10 -35 12l-6 15l-23 -6q-14 2 -26 6l-6 -15q-10 4 -21 15h-20l-6 14q-20 -8 -43 -12q-10 -14 -11 -37l-8 -8q-20 8 -35 22h15l6 15q-10 8 -21 8 l-14 -2l-20 -21q0 -10 2 -33l-9 -14v21l-14 6q8 10 16 16q0 16 -34 17q-8 0 -25.5 -3.5t-24.5 -3.5l-6 -12q10 -8 27 -29h-27q0 43 -28 43l-13 -2l-8 -12l-26 27l-15 -6v-9l29 -41h-35l-6 15q-10 -2 -29 -2l-12 2l-2 2q8 6 16 14q-4 8 -35.5 17.5t-46.5 9.5q-8 0 -22 -8 l-2 -9q6 -8 16 -26h-28l-7 -15q-10 16 -30 17q-4 0 -31 -2l-16 -21q-12 4 -25 6l-6 15q-20 4 -62 10l-14 -25q-10 4 -27 17l-8 -2l-6 -15q-76 16 -131 17q-16 0 -51 -7.5t-51 -7.5q-12 0 -25 9l-35 -23q-6 0 -20.5 6t-22.5 6q-23 0 -67 -12l-6 -14q-14 0 -43 -7.5t-44 -7.5 q-23 0 -36 15l-7 -15q-8 0 -25.5 -6t-27.5 -6q-18 0 -37 12l-26 -28q-6 2 -23.5 9t-23.5 7q-14 0 -37 -6l-39 -8l-6 -15l-33 -16q-45 6 -86 6q-90 0 -394 -136t-395 -136q-133 -1 -133 108zM725 424l104 625h209l-18 -82h4q59 96 162 96l-51 -307q-33 33 -58 32 q-82 0 -102 -122l-41 -242h-209zM1094 133q0 84 61.5 140.5t144.5 56.5q63 0 107.5 -37t44.5 -100q0 -82 -61.5 -137.5t-145.5 -55.5q-63 0 -107 35t-44 98zM1210 147q0 -47 52 -47q31 0 51 22.5t20 53.5q0 49 -51 49q-31 0 -51.5 -23.5t-20.5 -54.5zM1350 492l108 251 q66 -94 135 -94q66 0 66 70q0 18 -84 43q-125 39 -125 180t90 258q96 125 234 125q106 0 180 -78l-99 -225q-55 66 -116 65q-55 0 -56 -47q0 -27 56 -49q74 -29 100 -53q55 -49 55 -143q0 -147 -86 -260q-96 -123 -237 -123q-125 0 -221 80zM1462 4l56 320h213l-15 -91h-98 l-4 -32h84l-15 -84h-84l-18 -113h-119zM1855 168l146 881h199l-23 -99h6q57 113 154 113q135 0 135 -221q0 -127 -62 -264q-74 -166 -182 -166q-39 0 -70.5 28.5t-39.5 69.5h-7q0 -100 -47 -342h-209zM2146 711q0 -61 41 -62q33 0 52.5 39t19.5 74q0 63 -43 63 q-33 0 -53 -43q-17 -34 -17 -71zM2206 133q0 78 59 137.5t137 59.5q39 0 76 -13l-16 -122q-29 33 -64 32q-29 0 -51.5 -20.5t-22.5 -48.5q0 -55 56 -56q35 0 71 31l-24 -121q-29 -12 -84 -12q-57 0 -97 38t-40 95zM2470 4l53 320h117l-37 -215h98l-18 -105h-213zM2494 647 q0 147 80 273q90 143 230 143q106 0 164 -80q51 -70 51 -180q0 -55 -15 -117h-303q-4 -31 -4 -51q0 -55 37 -55q35 0 49 51h205q-33 -92 -108.5 -155.5t-169.5 -63.5q-104 0 -162 67q-54 62 -54 168zM2724 815h96q2 29 2 35q0 47 -39 47q-47 0 -59 -82zM2728 133 q0 84 61.5 140.5t145.5 56.5q63 0 107 -37t44 -100q0 -82 -61.5 -137.5t-145.5 -55.5q-63 0 -107 36t-44 97zM2847 147q0 -47 49 -47q31 0 51.5 22.5t20.5 53.5q0 49 -50 49q-31 0 -51 -23.5t-20 -54.5zM2904 1604l6 4l10 -9q-4 0 0 -6l-12 -4l-2 13zM2986 1460l4 2 q6 -2 12 0l-6 -8l-8 2zM3066 647q0 150 80 275q90 141 231 141q104 0 162 -80q51 -72 51 -180q0 -55 -12 -117h-305q-4 -31 -4 -51q0 -55 36 -55q35 0 50 51h204q-33 -92 -108.5 -155.5t-169.5 -63.5q-102 0 -158.5 65.5t-56.5 169.5zM3125 324h121q20 -164 19 -193h2 q8 53 84 193h120l-178 -320h-98zM3197 1442l6 8l4 -12h-2l-6 4v-4zM3269 1436q2 6 0 12l8 -2q-2 -4 -4 -14zM3295 815h99v35q2 47 -39 47q-48 0 -60 -82zM3445 4l53 320h115l-54 -320h-114zM3459 1464l4 17l2 -8v-15zM3463 1536l8 8h2l11 -2l-11 -8zM3541 1530l10 2 q10 0 25 -8h-27zM3543 1452l8 14l2 -6l-2 -16zM3600 29l52 90q37 -33 73 -33q33 0 33 18q-2 2 -74 33q-43 18 -43 60q0 57 54 96q47 37 106 37q55 0 96 -29l-45 -82q-31 25 -63 25q-27 0 -27 -17l77 -33q40 -17 40 -63q0 -59 -49 -95t-111 -36q-66 0 -119 29zM3637 639 q0 129 60 262q72 162 182 162q82 0 115 -96h6q10 150 59 411h209l-158 -954h-196l20 94h-6q-76 -106 -158 -106q-72 0 -106 82q-27 61 -27 145zM3670 1434l6 2q12 0 19 -4l-2 -5h-21zM3670 1511l8 9l6 -9l-6 -8zM3850 711q0 -61 41 -62q29 0 51 43q20 37 21 70q0 63 -43 63 q-33 0 -53 -43q-17 -34 -17 -71zM4176 168l164 319l-92 562h225q14 -217 4 -340h6q20 98 115 340h219l-422 -881h-219z" />
<glyph unicode="}" horiz-adv-x="921" d="M78 -2q10 76 33 80l12 -6q47 -29 164 -29q57 0 59 53l21 520q2 80 135 97h6l2 4l-4 4h-8q-92 14 -138 133q-14 37 -12 115l12 235q0 18 -7 37t-29 19q-35 0 -80 -39q-74 45 -115 155l-10 25q0 12 -2 16q33 0 92 13q27 6 48.5 8t47.5 2q84 0 164 -58.5t109 -136.5 q10 -25 8 -94l-11 -283q0 -12 3 -41q14 -35 47 -32l20 2l33 2l12 2q16 0 25 -27l35 -98q18 -57 2 -58l-9 3l-20 4q-55 0 -107 -29q-23 -14 -24 -61l-23 -582q-4 -111 -204 -111q-82 0 -222 29l-41 8q-14 0 -24 17q-10 28 0 102z" />
<glyph unicode="~" horiz-adv-x="1366" d="M190 1255q111 276 310 277q61 0 225 -72q121 -53 158 -53q82 0 151 129l146 -121q-55 -133 -117 -194q-80 -78 -205 -78q-59 0 -225 74q-102 45 -152 45q-74 0 -145 -127z" />
<glyph unicode="&#xa1;" horiz-adv-x="585" d="M-70 -119l11 19l8 28l18 68l27 166q18 121 33 377l6 106q2 35 0 55q-6 47 14 48q12 0 41 -15l80 -22q147 -41 164 -86v-25l-10 -483q-2 -156 6 -246l8 -107l12 -20l4 -8q10 -27 -24 -27q-78 0 -250 66q-162 61 -148 106zM37 893l4 57l6 129q2 31 31 31q18 0 45 -8l51 -17 l80 -26l45 -19q59 -25 55 -69l-12 -109q-4 -33 0 -69q2 -41 -35 -41q-23 0 -102 30l-84 33q-88 35 -84 78z" />
<glyph unicode="&#xa2;" d="M88 610q0 72 16 166q37 199 121 322q8 12 19 35l2 26q4 31 45 31q20 0 49 -4l55 -8l-6 94q-2 8 3 12t18 4l30 -2h19l37 -10l28 -4q27 -4 35 -25l2 -12l-24 -98q18 -6 51 -27h26q72 0 181 -51q82 -39 114 -123q41 -111 19 -193q-6 -27 -45 -26q-51 0 -150 22 q-115 25 -129 54q2 8 2 10t6 20q25 90 6 138q-18 51 -59 51q-33 0 -43 -84l-10 -97l-4 -118l-6 -307l32 -5q33 0 61.5 27t36 59.5t16.5 41t40 8.5q51 0 149 -29q109 -35 123 -70q10 -29 -53 -110q-106 -139 -307 -140q-45 0 -102 15l18 -121l-29 -8q-31 0 -80 18.5t-73 40.5 l8 117q-168 72 -225 221q-23 57 -23 139z" />
<glyph unicode="&#xa3;" d="M33 819q0 29 20 29q16 0 37 -6l37 -4h127q4 35 4 170q2 254 74 358l-2 23q37 14 55 14q100 0 264 -72l109 -47l80 -27q193 -63 249 -215q29 -76 35 -157q6 -82 -16 -82q-80 0 -205 43q-160 55 -137 92l10 23q10 23 8 73q-2 57 -12 86q-20 55 -65 56q-76 0 -80 -258 l-2 -89h47q49 0 71 -28q63 -74 113 -203q23 -61 2 -63l-22 6q-2 0 -7 2h-6q-12 0 -20 2l-103 4h-92l-4 -23q-14 -88 -31 -127q-25 -51 -84 -98l334 -2q8 0 17 2h12l39 6q31 0 87 -78.5t89 -165.5q10 -29 10 -47q0 -29 -28 -28h-25q-6 0 -30.5 2t-43.5 2l-213 4l-338 -4 l-30 -4q-35 0 -84 63q-80 102 -117 199l-14 47q0 10 16 18q29 12 49 78q6 18 37 158l4 20l-102 -4q-55 43 -99 154q-24 67 -24 98z" />
<glyph unicode="&#xa4;" d="M8 1180q0 31 68 53q76 25 117 24q41 0 65 -43q12 -20 16 -24l86 -94l23 -4q72 -12 211 -41l72 -7l47 84l32 74q27 57 39 58q25 0 117 -87.5t103 -115.5q6 -16 -13 -35q-4 -8 -16 -23l-17 -24l-14 -25q61 -37 80 -90q35 -102 12 -246q-27 -162 -100 -256l16 -16l74 -78 q37 -33 88 -94q10 -25 -80 -55q-80 -29 -114 -29q-29 0 -56 37l-63 74l-51 59l-45 -2q-82 -4 -271 41l-18 -37l-17 -31l-41 -80l-20 -49q-18 -37 -37 -37q-39 0 -113 76l-67 70q-25 27 -33 49q-6 16 14 41q33 39 52 76l10 18q-131 72 -131 223q0 49 18 125q31 131 115 265 q-68 63 -156 163q-2 7 -2 13zM369 625q-14 -84 2 -131q27 -80 131 -80q84 0 137 73q33 45 66 148q25 70 32 151q2 27 6 70q-2 18 -6 45q-29 80 -143 80q-92 0 -172 -182q-37 -84 -53 -174z" />
<glyph unicode="&#xa5;" d="M45 1319q-10 29 94 43q72 10 129 10q111 0 146 -10t43 -31v-8l-4 -25q-2 -18 12 -59l119 -326l63 283l12 84q8 39 9 53q-2 39 22 39q43 0 127 -39q12 -4 25 -10l137 -66q92 -43 100 -71q4 -10 -20 -33q-6 -6 -23 -45l-55 -147l-10 -31l-6 -17h26q14 0 35 2h27l16 3 q53 0 91 -103.5t5 -109.5l-16 4q-16 6 -108.5 14t-133.5 8l-41 -145h54q31 0 57 4h18q55 0 95 -111q18 -51 18 -78q0 -23 -16 -24l-17 4q-53 23 -254 22l-20 -79q-55 -227 -49 -269l8 -37q4 -27 -33 -26q-63 0 -213 63q-160 66 -176 113q-2 10 16 39q43 66 72 164l10 35h-14 l-103 -5q-31 -2 -47 -4h-14q-43 0 -76 97q-14 43 -8 77q4 33 29 33l18 -2l33 -4l78 -4l59 -2l-65 141h-23l-100 -6h-27q-16 0 -20 -2h-15q-43 0 -75 96q-16 43 -9 78q6 35 29 35l18 -4l31 -4l107 -6l-97 208q-63 137 -82 162z" />
<glyph unicode="&#xa6;" horiz-adv-x="1024" d="M362 313h300v-655h-300v655zM362 647v719h300v-719h-300z" />
<glyph unicode="&#xa7;" horiz-adv-x="1179" d="M-31 -78q0 45 49 129q61 104 109 105q39 0 41 -43l27 -19q236 -158 393 -157q25 0 39 16t6 41t-27 39q-27 23 -129 96l-110 80q-156 113 -209 166q-27 27 -43 55q-53 78 -54 170q0 135 146 260q-23 23 -51 60q-18 25 -27 47q-18 45 8 149q31 117 74 195q16 29 18 61 q2 61 64 62q45 0 102 -23l94 -37q66 -25 105 -55q94 0 209 -47q131 -53 160 -129q12 -33 12 -78l-4 -70q-2 -61 8 -118q8 -45 -35 -46q-80 0 -188 50q-115 51 -138 96q-6 16 7 27l8 14q14 14 20 53q6 35 0 53q-16 43 -59 43q-29 0 -47 -49l-23 -57q-14 -39 -12 -62 q2 -25 23 -45q20 -31 100 -86l110 -75q117 -82 164 -123q94 -84 123 -160q16 -41 17 -82q0 -143 -148 -256q25 -27 62 -76q47 -59 47 -135q0 -70 -39 -149q-90 -178 -285 -179q-119 0 -285 58q-143 49 -264 119q-70 41 -119 61q-49 14 -49 51zM358 625q0 -45 70 -99l41 -30 l233 -168q82 37 62 90q-16 45 -141 133l-211 147q-54 -30 -54 -73z" />
<glyph unicode="&#xa8;" horiz-adv-x="1024" d="M395 1231l4 26l7 56q10 104 61 104q27 0 68 -14l40 -14q59 -20 87 -46l24 -22l21 -18q6 -4 8 -13q2 -4 0 -22l-10 -113q-2 -18 -13 -25l-14 -6l-29 -16l-22 6l-70 21l-70 32q-63 29 -92 64zM805 1210l6 13l6 73l10 56q8 49 45 49q12 0 54 -12l51 -15l88 -33 q35 -16 43 -36.5t8 -42.5l-10 -58l4 -49q2 -39 -25 -63q-68 0 -151 32q-94 37 -129 86z" />
<glyph unicode="&#xa9;" horiz-adv-x="1579" d="M80 784q0 76 12 148q84 455 608 454q98 0 230 -22q193 -33 334 -158q260 -227 260 -624q0 -49 -4 -101q-47 -502 -621 -501q-102 0 -229 22q-193 35 -332 158t-203 309q-55 161 -55 315zM268 758q0 -121 43 -250q125 -360 563 -361q307 0 412 197q43 82 47 236 q8 291 -143 460q-158 178 -453 179q-199 0 -307 -76q-119 -84 -154 -273q-8 -55 -8 -112zM514 707q20 152 72 282l20 53v19q2 20 60 20q57 0 116 -14l62 -14l63 -11q133 -23 154.5 -85t17.5 -136l-2 -24l8 -11q-35 -20 -98 -20q-129 0 -143 43q-4 8 0 14l4 8q25 63 6 121 q-4 12 -16 17q-10 0 -17 -21l-10 -39q-35 -121 -49 -245q-23 -217 45 -218q31 0 59 54q25 47 25 82q0 29 12 40t49 11q35 0 82 -10q63 -12 70 -31q12 -37 -33 -143q-70 -168 -192 -168q-37 0 -64 8q-18 2 -84 26q-178 66 -213 168q-24 68 -4 224z" />
<glyph unicode="&#xaa;" horiz-adv-x="720" d="M178 645q-8 23 8 23l19 -2l125 -13h252q109 0 155 13l15 -15q39 -43 47 -69q14 -39 -6 -39l-13 2q-20 6 -41 6h-32l-45 2h-345l-32 -4l-27 -4q-47 0 -80 100zM223 883q-25 70 6 209q29 121 72 202q33 59 37 88l22 2q29 2 68 -14t76 -43q10 0 33 -4l32 -6l-2 20l-10 13 q-6 16 21 16q37 0 110 -25q82 -25 90 -49q2 -6 -4 -12l-4 -6q-4 -10 -8 -43l-4 -101l-10 -339l6 -23q8 -27 -33 -27q-35 0 -100 21q-74 25 -82 49q-2 6 2 43l8 53l-8 -14q-25 -47 -68 -111q-25 -27 -55 -26q-49 0 -115 41t-80 86zM422 969q-14 -98 22 -99q33 0 78 162 q47 156 37 205q-4 27 -31 27q-31 0 -77 -160q-19 -72 -29 -135z" />
<glyph unicode="&#xab;" horiz-adv-x="897" d="M-14 637q2 43 14 58.5t39 19.5l67 10l64 12l63 19q12 0 23 -29q33 -100 37 -162l-76 -24q-43 -14 -37 -33q8 -25 89 -83t93 -87q18 -51 19 -115q2 -59 -23 -59q-6 0 -12 8l-16 18q-6 6 -33 23q-100 59 -139 94l-60 51l-32 27q-43 29 -56 66q-32 96 -24 186zM365 598 q0 49 4 64q10 25 49 30l69 10l62 13q20 8 61 20q18 0 33 -41q29 -82 25 -143l-68 -25q-51 -18 -45 -34q8 -25 43 -46l39 -28l31 -31l34 -27q33 -25 41 -45v-16l9 -61q10 -92 -13 -93q-6 0 -18 11l-29 22l-47 35q-57 37 -137 96l-55 51l-39 31q-20 14 -29 39q-16 51 -20 168z " />
<glyph unicode="&#xac;" horiz-adv-x="1024" d="M-35 594h887l205 -594h-289l-115 332h-598z" />
<glyph unicode="&#xad;" d="M195 629q0 88 55 168q43 -12 74 -13h53l59 -2l418 9q55 2 82 10q4 2 12 2q2 0 4 2h4q23 0 23 -31q0 -51 -16 -115q-20 -86 -58 -84l-71 5l-70 -2h-287l-88 -5q-82 -4 -125 -12l-20 -2q-49 0 -49 70z" />
<glyph unicode="&#x2212;" d="M195 629q0 88 55 168q43 -12 74 -13h53l59 -2l418 9q55 2 82 10q4 2 12 2q2 0 4 2h4q23 0 23 -31q0 -51 -16 -115q-20 -86 -58 -84l-71 5l-70 -2h-287l-88 -5q-82 -4 -125 -12l-20 -2q-49 0 -49 70z" />
<glyph unicode="&#xae;" horiz-adv-x="1579" d="M80 784q0 76 12 148q84 455 608 454q98 0 230 -22q193 -33 334 -158q260 -227 260 -624q0 -49 -4 -101q-47 -502 -621 -501q-102 0 -229 22q-193 35 -332 158t-203 309q-55 161 -55 315zM268 758q0 -121 43 -250q125 -360 563 -361q307 0 412 197q43 82 47 236 q8 291 -143 460q-158 178 -453 179q-199 0 -307 -76q-119 -84 -154 -273q-8 -55 -8 -112zM442 1071l47 2l86 14q49 8 150 9q162 0 250 -74q49 -41 98 -104q70 -90 70 -148q0 -90 -156 -158q84 -141 160 -198q25 -20 27 -29q8 -25 -62 -60.5t-100 -35.5q-27 0 -41 24l-6 15 l-15 16q-51 63 -159 213h-9l-2 -162l2 -28l2 -27l7 -23q4 -10 0 -18q-4 -10 -19 -10q-23 0 -67 14l-78 25q-78 25 -90 55l4 55l6 86l12 363q-94 98 -110 160zM791 766q53 16 88.5 46t29.5 52q-10 29 -61 29h-29q-25 -4 -26 -4z" />
<glyph unicode="&#xaf;" horiz-adv-x="2048" />
<glyph unicode="&#x2c9;" horiz-adv-x="2048" />
<glyph unicode="&#xb0;" horiz-adv-x="819" d="M80 1204q0 59 29 109q55 92 184 92q127 0 252 -90q55 -41 102 -98q94 -117 94 -244q0 -92 -59 -143.5t-154 -51.5q-133 0 -255.5 94.5t-170.5 221.5q-22 59 -22 110zM203 1163q0 -35 16 -76q29 -74 109 -133t149 -59q84 0 121 57q18 29 18 66q0 33 -16 72 q-31 82 -106.5 140t-159.5 58q-59 0 -95 -35t-36 -90z" />
<glyph unicode="&#xb1;" horiz-adv-x="1124" d="M20 741v113h486v502h112v-502h486v-113h-486v-477h-112v477h-486zM23 0v113h1073v-113h-1073z" />
<glyph unicode="&#xb2;" horiz-adv-x="751" d="M186 1288q-8 20 27 29l23 6l51 25q53 27 131 26q129 0 248 -108q135 -127 135 -226q0 -139 -316 -288h52q113 0 143 10l14 2q23 0 70 -68q37 -55 51 -90l16 -43q8 -25 -12 -24l-14 4q-43 6 -68 6l-280 -2h-23q-12 -2 -14 -2l-19 -2q-31 0 -90 85t-96 181q-10 27 12 37 l21 8l47 31q76 49 160 121q125 104 110 141q-6 14 -35 14t-72.5 -19.5t-56.5 -43.5q-12 -14 -18 -15q-16 -4 -90 70q-68 68 -84 96l-16 27z" />
<glyph unicode="&#xb3;" horiz-adv-x="751" d="M188 1333l11 -2q2 0 34 4q125 31 181 31q127 0 241 -152q84 -111 84 -172q0 -80 -90 -94q43 -6 94 -59q49 -59 74 -125q16 -39 17 -72q0 -147 -230 -147q-96 0 -266 37l-47 10q-23 4 -31 24q-23 59 -8 129q16 82 37 82q2 0 14 -8q37 -27 131 -37q18 -2 53 -2 q137 0 123 41q-14 37 -84 37q-66 0 -75 -4l-25 -2q-12 0 -38 35t-42 80q-37 98 -20 98l8 -2l12 -4l12 -2q39 0 109 22q86 29 74 58q-6 16 -35 16q-61 0 -154 -51q-41 25 -88 86t-67 110z" />
<glyph unicode="&#xb4;" horiz-adv-x="1024" d="M616 1153l82 223q8 20 27 21l37 -4l67 4q125 8 142 -29q4 -14 -21 -61l-26 -52l-60 -61q-10 -14 -37.5 -60.5t-87.5 -46.5q-43 0 -80 13q-57 18 -43 53z" />
<glyph unicode="&#xb5;" horiz-adv-x="1179" d="M68 -307q0 53 16 119l18 73q25 98 25 158v981h180v-678q0 -227 189 -227q125 0 229 147v758h180v-756q0 -184 101 -184q37 0 64.5 38t37.5 101l53 -2q-45 -248 -246 -248q-84 0 -131 58q-35 41 -59 135q-160 -193 -317 -193q-92 0 -201 95q0 -94 22 -177q39 -139 39 -188 q0 -152 -100 -152q-43 0 -71.5 41.5t-28.5 100.5z" />
<glyph unicode="&#x3bc;" horiz-adv-x="1179" d="M68 -307q0 53 16 119l18 73q25 98 25 158v981h180v-678q0 -227 189 -227q125 0 229 147v758h180v-756q0 -184 101 -184q37 0 64.5 38t37.5 101l53 -2q-45 -248 -246 -248q-84 0 -131 58q-35 41 -59 135q-160 -193 -317 -193q-92 0 -201 95q0 -94 22 -177q39 -139 39 -188 q0 -152 -100 -152q-43 0 -71.5 41.5t-28.5 100.5z" />
<glyph unicode="&#xb6;" horiz-adv-x="1228" d="M51 1055q0 119 113 198q178 125 508 125q123 0 303 -32q233 -43 266 -107q4 -10 2 -68q-2 -43 -16 -90q-27 -88 -58 -88q-12 0 -24 6l-31 15q-14 8 -49 10l-10 -70l-13 -100l-79 -940q-2 -33 4 -49q6 -23 -13 -23q-45 0 -129 41t-112 78q25 37 32 143l80 1006l-100 8 q-18 -129 -31 -264l-80 -940q-2 -33 4 -49q6 -23 -12 -23q-45 0 -129 41t-112 78q25 37 32 143l39 492q-125 0 -252 158q-133 164 -133 301z" />
<glyph unicode="&#xb7;" horiz-adv-x="389" d="M31 526l6 39l4 39l4 98q-2 25 14 25q-2 0 37 -8l70 -21l65 -22q68 -23 76 -47q4 -14 4 -31l-10 -176q0 -27 -16 -27l-21 4l-37 13q-182 61 -194 96q-2 6 -2 18z" />
<glyph unicode="&#x2219;" horiz-adv-x="389" d="M31 526l6 39l4 39l4 98q-2 25 14 25q-2 0 37 -8l70 -21l65 -22q68 -23 76 -47q4 -14 4 -31l-10 -176q0 -27 -16 -27l-21 4l-37 13q-182 61 -194 96q-2 6 -2 18z" />
<glyph unicode="&#xb8;" horiz-adv-x="1024" d="M152 -358q-4 8 18 49q41 72 41 166q0 27 -4 55q27 20 55 20q33 0 68 -12q29 -8 76 -35q49 0 61 -37q14 -43 -31 -135l-20 -39l-17 -45q-23 -57 -82 -57q-23 0 -36 6l-48 21l-40 10l-17 12z" />
<glyph unicode="&#xb9;" horiz-adv-x="751" d="M369 1343q-12 33 18 33h25q-8 0 32 -8l62 -12q86 -16 96 -47q4 -12 0 -33v-14q-2 -4 0 -21l8 -205q14 -369 56 -475l4 -12q4 -8 -2 -14l-21 -5q-55 0 -137 32t-90 52q-4 8 -2 13l2 12v43l-2 55l-4 62z" />
<glyph unicode="&#xba;" horiz-adv-x="681" d="M160 645q-8 23 8 23l20 -2q127 -12 123 -13h252q109 0 156 13l14 -15q39 -43 47 -69q14 -39 -6 -39l-10 2q-20 6 -41 6h-31l-47 2h-346l-33 -4l-24 -4q-18 0 -43 27.5t-39 72.5zM231 926q-27 76 2 209q27 123 74 198q8 14 6 33.5t25 19.5q74 0 176 -43q37 0 70.5 -11 t64.5 -29q61 -37 78 -82q27 -76 8 -209q-35 -258 -184 -258q-82 0 -203 59q-94 47 -117 113zM444 918q12 -37 43 -37q41 0 64 123q16 86 18 143q4 131 -53 137q-45 0 -68.5 -152.5t-3.5 -213.5z" />
<glyph unicode="&#xbb;" horiz-adv-x="892" d="M29 913q-2 39 16 39q8 0 18 -8l27 -24l49 -33q57 -37 137 -96l56 -52l37 -30q33 -27 41 -105q2 -4 8 -102q2 -53 -8.5 -70.5t-47.5 -23.5l-67 -11l-59 -12q-25 -2 -41 -12q-6 -4 -21 -8q-20 0 -35 41q-29 82 -24 143l69 22q49 16 43 35q-8 23 -41 47l-39 29l-30 29 l-35 28q-35 27 -41 45l-4 17l-4 61zM403 899q6 37 21 37q8 0 14 -8l17 -19q6 -6 32 -22q106 -66 140 -94l57 -52q20 -16 35 -26q61 -41 78 -160q6 -49 2 -90q-6 -49 -13 -59q-18 -16 -43 -21h-12q-10 -2 -18 -3t-35 -7l-66 -13q-31 -6 -39 -12l-22 -6q-14 0 -25 29 q-29 86 -37 159l78 27q43 14 35 33q-6 23 -87 83t-93 87l-2 12l-10 41q-13 51 -7 84z" />
<glyph unicode="&#xbc;" horiz-adv-x="1775" d="M268 1343q-12 33 19 33h24q-8 0 35 -8l62 -12q84 -16 96 -47q4 -12 0 -33q-2 -2 -2 -14v-21l8 -205q14 -369 55 -475l4 -12q4 -8 -2 -14l-18 -5q-55 0 -138 32t-92 52q-2 8 0 13l3 12v43l-5 55l-4 62zM639 84q55 113 129 399l88 332l82 356q35 150 29 183q-14 41 16 41 q37 0 111.5 -28t85.5 -54q0 -2 -2 -2q0 -10 -2 -15q-12 -16 -48 -125l-28 -90l-174 -663q-78 -297 -70 -373l2 -31q4 -27 -22 -26q-84 0 -197 96zM1108 399q-6 14 18 52l15 36l20 43l49 119l27 72l35 106q61 0 180 -34q135 -41 150 -82q4 -8 2 -29q-6 -18 -2 -100l10 -152h8 q18 0 59 -76q31 -57 45 -96q8 -23 -6 -22l-8 2l-24 2h-58l8 -115l13 -92l16 -31q2 -6 -4 -10l-19 -4q-49 0 -126 26q-90 29 -103 64q-6 12 0 37q10 51 6 84l-4 32l-55 -2l-37 -4l-25 -2l-14 -2q-27 0 -95.5 72.5t-80.5 105.5zM1329 426h72l-10 174l-7 4l-6 -10 q0 -37 -49 -168z" />
<glyph unicode="&#xbd;" horiz-adv-x="1775" d="M268 1343q-12 33 19 33h24q-8 0 35 -8l62 -12q84 -16 96 -47q4 -12 0 -33q-2 -2 -2 -14v-21l8 -205q14 -369 55 -475l4 -12q4 -8 -2 -14l-18 -5q-55 0 -138 32t-92 52q-2 8 0 13l3 12v43l-5 55l-4 62zM639 84q55 113 129 399l88 332l82 356q35 150 29 183q-14 41 16 41 q37 0 111.5 -28t85.5 -54q0 -2 -2 -2q0 -10 -2 -15q-12 -16 -48 -125l-28 -90l-174 -663q-78 -297 -70 -373l2 -31q4 -27 -22 -26q-84 0 -197 96zM1090 743q-6 16 30 27q8 2 21 8q117 49 184 49q127 0 246 -108q137 -125 137 -223q0 -139 -315 -289h51q90 0 143 8l15 2 q16 0 60 -58.5t60 -99.5l17 -43q8 -23 -13 -22l-14 2q-12 4 -26 4q-27 4 -41 2h-160l-121 -2q-16 0 -37 -2l-18 -2q-39 0 -109 115q-55 90 -80 151q-8 25 41 55q39 20 76 43q256 180 233 238q-6 16 -32 16q-84 0 -131 -61q-6 -12 -15 -16q-20 0 -91 69.5t-87 98.5l-16 24z " />
<glyph unicode="&#xbe;" horiz-adv-x="1775" d="M88 1333l10 -2q2 0 35 4q127 31 180 31q127 0 242 -152q84 -111 84 -172q0 -80 -90 -94q43 -6 94 -59q49 -59 76 -125q14 -39 14 -72q0 -147 -229 -147q-96 0 -266 37l-48 10q-23 4 -30 24q-23 59 -8 129q16 82 36 82q2 0 15 -8q37 -27 131 -37q20 -2 55 -2q137 0 121 41 q-14 37 -84 37q-66 0 -76 -4l-24 -2q-12 0 -38 35t-42 80q-37 98 -21 98l8 -2l13 -4l12 -2q39 0 111 22q84 29 73 58q-8 16 -36 16q-61 0 -154 -51q-41 25 -88 86t-66 110zM637 84q53 111 129 399l88 332l82 356q35 150 29 183q-14 41 16 41q37 0 111.5 -28t85.5 -54 q0 -2 -2 -2q0 -10 -2 -15q-18 -29 -48 -125l-26 -90l-174 -663q-80 -303 -72 -373l2 -31q4 -27 -22 -26q-84 0 -197 96zM1106 399q-4 12 6 29.5t12 22.5l17 36l18 43l49 119l27 72q23 63 29 90l6 16q61 0 180 -34q135 -41 149 -82q4 -8 3 -29q-6 -18 -3 -100l11 -152h8 q18 0 59 -76q35 -59 47 -96q8 -23 -6 -22l-8 2l-24 2h-60l8 -115l13 -92l16 -31q2 -8 -4 -10l-17 -4q-47 0 -126 26q-92 29 -105 64q4 45 6 121l-4 32l-55 -2l-37 -4l-25 -2l-14 -2q-27 0 -95.5 72.5t-80.5 105.5zM1327 426h72l-8 168l-2 6q-2 2 -7 4q-4 -8 -4 -10 q0 -41 -51 -168z" />
<glyph unicode="&#xbf;" horiz-adv-x="1056" d="M-109 279q0 125 228 266q205 127 211 213q2 35 20 35q37 0 156 -79t131 -112q4 -10 -6 -31l-33 -79q-47 -106 -178 -222l-62 -53q-74 -63 -73 -108q0 -31 41 -58q25 -16 53 -16q74 0 141 47q61 43 98 111q100 -35 232 -170q86 -88 98 -123q4 -14 -14 -27l-21 -12 q-49 -31 -178 -94q-119 -47 -188 -48q-162 0 -409 215.5t-247 344.5zM358 893l7 190q0 20 26 21q53 0 195 -49q74 -27 84 -56q4 -12 -2 -45l-2 -39v-65l2 -31q4 -47 -19 -49l-14 2l-57 12q-18 4 -70.5 20.5t-81.5 29.5q-59 27 -66 43z" />
<glyph unicode="&#xc0;" horiz-adv-x="1114" d="M43 236q-6 14 4 26l21 31q25 35 41 90l290 922q10 43 9 49l-7 22q-8 27 23 27q76 0 324 -98l172 -68q135 -53 143 -82q2 -6 0 -14l-10 -27q-20 -61 -13 -323l11 -367q6 -176 24 -293q6 -45 6 -80l2 -18l19 -43q6 -14 -19 -19q-70 0 -199.5 50.5t-209.5 113.5l8 250 l-213 -4l-51 -238q-6 -37 -10 -84q-4 -29 0 -75q-104 18 -265 147q-88 72 -100 105zM444 1692q-8 27 66 28l65 2l58 -2l20 2l13 2q12 0 32 -26l181 -246q16 -43 -80 -43q-27 0 -72 10l-22 21l-87 82l-90 88l-41 37q-39 35 -43 45zM528 637h154l14 506z" />
<glyph unicode="&#xc1;" horiz-adv-x="1114" d="M47 236q-6 14 4 26l21 31q23 35 41 90l290 922q10 43 9 49l-6 22q-8 27 22 27q76 0 324 -98l170 -68q135 -53 145 -82q2 -6 0 -14l-10 -27q-20 -61 -13 -323l11 -367q6 -176 22 -293q8 -45 8 -80l2 -18l19 -43q4 -14 -19 -19q-70 0 -199.5 50.5t-209.5 113.5l8 250 l-215 -4l-49 -238q-6 -37 -12 -84q-2 -29 2 -75q-104 18 -267 147q-88 72 -98 105zM532 637h154l14 506zM602 1503l84 223q8 20 27 21l35 -4l67 4q123 8 141 -29q4 -14 -20 -61l-29 -51l-57 -64q-14 -16 -39 -60t-84 -44q-43 0 -82 12q-57 18 -43 53z" />
<glyph unicode="&#xc2;" horiz-adv-x="1114" d="M51 236q-6 14 4 26l21 31q23 35 41 90l291 922q10 43 8 49l-6 22q-8 27 22 27q76 0 324 -98l172 -68q135 -53 143 -82q2 -6 0 -14l-10 -27q-20 -61 -12 -323l10 -367q6 -176 22 -293q8 -45 9 -80l2 -18l18 -43q6 -14 -18 -19q-70 0 -200 50.5t-210 113.5l8 250l-215 -4 l-49 -238q-6 -37 -10 -84q-4 -29 0 -75q-104 18 -266 147q-87 72 -99 105zM481 1489l11 35l10 30q8 25 18 39q0 2 19 43l34 70l19 35q16 31 123 31q78 0 153 -13q31 -6 50 -49l34 -82l43 -98q10 -29 17 -37l14 -20q8 -23 -49 -23q-80 0 -123 12l-53 123q-10 25 -25 25 q-6 0 -14 -15l-70 -118q-10 -18 -67 -19q-134 0 -144 31zM537 637h153l15 506z" />
<glyph unicode="&#xc3;" horiz-adv-x="1114" d="M51 236q-6 14 4 26l21 31q23 35 41 90l291 922q10 43 8 49l-6 22q-10 27 20 27q78 0 326 -98l170 -68q135 -53 145 -82q2 -6 0 -14l-10 -27q-23 -61 -14 -323l12 -367q6 -176 22 -293q8 -45 9 -80l2 -18l18 -43q4 -14 -18 -19q-72 0 -201 50.5t-209 113.5l8 250l-215 -4 l-49 -238q-6 -37 -12 -84q-2 -29 2 -75q-106 18 -266 147q-89 72 -99 105zM401 1532q-4 12 0 35l13 59q29 143 141 143q68 0 164 -61q80 -51 112 -51q39 0 43 43q2 31 17 31q6 0 20 -5q35 -10 39 -10h29l16 -8l17 -2l20 -14q20 -14 27 -27q4 -6 0 -18q2 -6 -4 -31l-17 -64 q-25 -109 -114 -108q-70 0 -148 47l-76 45q-31 18 -61 18q-45 0 -41 -57q0 -29 -31 -29q-23 0 -51 5q-16 4 -55 16q-52 20 -60 43zM537 637h153l15 506z" />
<glyph unicode="&#xc4;" horiz-adv-x="1114" d="M70 236q-6 14 4 26l18 31q23 35 39 90l258 922q8 43 6 49l-6 22q-10 27 21 27q76 0 327 -98l174 -68q137 -53 148 -82q2 -6 -2 -14l-8 -27q-18 -61 -2 -323l24 -367q12 -176 33 -293q8 -45 10 -80l4 -18l21 -43q4 -14 -19 -19q-72 0 -203 50.5t-212 113.5l-3 250l-213 -4 l-40 -238q-6 -37 -9 -84q-2 -29 4 -75q-106 18 -272 147q-90 72 -102 105zM303 1565l4 28l2 56q8 104 58 104q31 0 69 -14l43 -17q66 -25 86 -43l25 -22l20 -19l11 -12q2 -6 0 -24l-7 -111q-2 -20 -12 -27l-14 -6l-27 -16l-24 8l-68 18l-72 33q-59 27 -94 64zM543 637h153 l-4 506zM729 1550l4 15l2 73l10 56q8 49 43 49q10 0 54 -12l51 -15l90 -33q57 -20 51 -61q2 -6 2 -18l-6 -60l4 -43q2 -35 -16 -63q-10 12 -17 12l-12 -4h-12q-63 0 -135 27q-80 30 -113 77z" />
<glyph unicode="&#xc5;" horiz-adv-x="1114" d="M86 236q-6 14 4 26l21 31q20 35 36 90l259 922q8 43 6 49l-6 22q-10 27 20 27q76 0 328 -98l174 -68q137 -53 147 -82q2 -6 0 -14l-8 -27q-20 -61 -4 -323l24 -367q12 -176 35 -293q8 -45 8 -80l5 -18l20 -43q4 -14 -18 -19q-72 0 -202 50.5t-214 113.5v250l-215 -4 l-41 -238q-6 -37 -8 -84q-2 -29 4 -75q-106 18 -271 147q-92 72 -104 105zM461 1690q0 68 49 109.5t121 41.5q84 0 170 -61q133 -94 133 -224q0 -45 -23 -81q-43 -70 -137 -70q-98 0 -180 59.5t-117 151.5q-16 39 -16 74zM559 637h154l-4 506zM614 1626q27 -78 111 -78 q35 0 51.5 23.5t3.5 56.5q-10 31 -44 53.5t-66 22.5q-35 0 -51.5 -22.5t-4.5 -55.5z" />
<glyph unicode="&#xc6;" horiz-adv-x="1396" d="M41 207q-2 6 22 96l25 94l188 768q18 80 27 148q4 39 14 49q4 8 35 8h625q39 0 55 4l33 4q27 0 79 -79.5t85 -176.5q16 -45 -8 -47l-9 2l-16 6l-278 -8l36 -287h185l14 3l8 2q29 0 72 -76q70 -117 92 -182q10 -29 -18 -29q-14 0 -23 2q2 0 -16 2q-74 8 -199 8 q-31 0 -74 -6l33 -233h236l18 -5q31 -18 84 -110q47 -80 64 -129q16 -47 -9 -47h-20q-8 0 -37 6q-55 6 -74 6l-157 -4h-170l-101 -4q-18 2 -96 85t-86 105q-2 8 0 27q2 10 2 29q-6 51 -25 153l-217 -6l-32 -219q-16 -104 -9 -150q4 -27 -12 -26q-55 0 -229 110 q-103 66 -117 107zM494 647l143 -4l-51 490z" />
<glyph unicode="&#xc7;" horiz-adv-x="1148" d="M-27 512q0 217 148 573q57 141 86 183.5t33 54.5l8 37q6 23 45 22q92 0 217 -45l149 -53l105 -31q207 -61 246 -161q16 -43 16 -142q0 -16 -4 -43l-12 -76l-2 -26q-2 -23 -93 -23q-78 0 -179 33t-113 64q-2 6 6 24q25 59 37 129q12 74 0 105q-8 23 -35 28 q-45 6 -135 -286q-102 -330 -103 -476q0 -86 45 -120q29 -20 54 -21q57 0 108 76q6 6 53 127q37 86 70 86q57 0 162 -29q121 -33 139 -67q2 -6 2 -15q0 -37 -45 -137q-55 -125 -145 -211q-111 -104 -228 -104q-139 0 -377 141q-188 113 -233 231q-25 64 -25 152zM193 -334 q-4 10 8 39q37 72 37 150q0 39 -9 82q29 20 64 20q33 0 57 -10l99 -41q33 -10 40 -33q2 -4 0 -25l-8 -63l-26 -64l-15 -45q-27 -78 -84 -77q-27 0 -63 16l-35 12l-31 8l-12 11l-10 6q-4 4 -12 14z" />
<glyph unicode="&#xc8;" horiz-adv-x="944" d="M133 260q-4 12 2 35q2 4 17 82l12 65l8 47l72 582q-111 166 -111 275q0 18 10 18l17 -4l16 -4h606q37 -35 90.5 -126t71.5 -149q10 -29 -4 -30l-22 6q-10 4 -31 6h-258l-37 -262l182 -10l14 2l9 -5q31 -16 75 -100q39 -72 56 -121l8 -22l6 -33l-10 -2l-19 2q-29 8 -110 8 h-131l-111 -2l-24 -225l268 -10q43 -39 93 -118t69 -136q16 -47 -19 -47l-37 6q-41 6 -243 10l-123 2l-125 -4l-55 -4q-45 -4 -152 143q-70 96 -80 125zM158 1733q-10 27 65 28l64 2l57 -2l21 2l10 2q18 0 39 -26l164 -226q10 -12 14 -20q14 -43 -82 -43q-27 0 -72 10 l-18 21l-90 82l-90 88l-43 37q-35 29 -39 45z" />
<glyph unicode="&#xc9;" horiz-adv-x="944" d="M115 1348q0 16 10 16l16 -4l17 -4h606q39 -35 94 -126t78 -149q10 -29 -2 -30l-25 6q-10 4 -30 6h-258l-27 -262l182 -10l12 2l11 -5q31 -16 80 -100q41 -72 59 -121l8 -22l6 -33l-8 -2l-20 2q-27 8 -109 8h-131l-113 -2l-16 -225l270 -10q43 -39 95.5 -118t74.5 -136 q18 -47 -16 -47l-39 6q-41 6 -242 10l-125 2l-124 -4l-54 -4q-45 -4 -157 143q-74 96 -84 125q-4 12 2 35q2 4 12 82l10 65l6 47l52 582q-39 55 -76 133q-45 95 -45 144zM328 1518l75 223q6 20 27 18l37 -2l65 2q127 4 142 -26q6 -14 -17 -62l-26 -51l-56 -64 q-20 -35 -42.5 -69.5t-77.5 -34.5q-109 0 -125 47q-4 11 -2 19z" />
<glyph unicode="&#xca;" horiz-adv-x="944" d="M133 1346q0 18 10 18l19 -4l14 -4h606q39 -35 91.5 -126t72.5 -149q8 -29 -4 -30l-22 6q-12 4 -31 6h-258l-37 -262l180 -10l14 2l11 -5q29 -16 75 -100q39 -72 56 -121l8 -22l4 -33l-8 -2l-21 2q-27 8 -108 8h-131l-113 -2l-24 -225l270 -10q41 -39 91 -118t71 -136 q14 -47 -21 -47l-37 6q-41 6 -241 10l-125 2l-125 -4l-53 -4q-45 -4 -152 143q-70 96 -80 125q-4 12 2 35q2 4 17 82l12 65l6 47l72 582q-111 166 -111 275zM209 1489q-2 4 8 35l10 30q4 14 17 39q2 6 20 43l37 70l16 35q14 31 123 31q82 0 154 -13q33 -6 51 -49l76 -180 l16 -37l15 -20q8 -23 -50 -23q-76 0 -122 12l-54 123q-10 25 -22 25q-8 0 -17 -15l-34 -63l-23 -33l-10 -22q-8 -18 -70 -19q-131 0 -141 31z" />
<glyph unicode="&#xcb;" horiz-adv-x="944" d="M123 1565l4 28l6 56q10 104 60 104q27 0 65 -14l45 -17q63 -23 84 -43l25 -22l20 -19l8 -12q2 -6 2 -24l-12 -111q-2 -20 -10 -27l-17 -6l-30 -16l-21 8l-67 18l-74 33q-57 27 -88 64zM131 260q-4 12 2 35q2 4 17 82l12 65l8 47l72 582q-111 166 -111 275q0 18 8 18 l19 -4l16 -4h606q37 -35 92 -129q49 -88 70 -146q10 -29 -4 -30l-23 6q-10 4 -30 6h-258l-37 -262l182 -10l14 2l9 -5q31 -16 75 -100q39 -72 56 -121l8 -22l6 -33l-10 -2l-19 2q-29 8 -110 8h-131l-111 -2l-24 -225l268 -10q43 -39 92 -118t70 -136q16 -47 -19 -47l-37 6 q-41 6 -243 10l-123 2l-125 -4l-56 -4q-45 -4 -151 143q-70 96 -80 125zM532 1550l7 15l6 73l8 56q6 49 47 49q10 0 53 -12l49 -15l91 -33q55 -20 49 -61q2 -6 0 -18l-8 -60l2 -43q2 -35 -17 -63q-10 12 -16 12l-12 -4h-11q-66 0 -135 27q-80 30 -113 77z" />
<glyph unicode="&#xcc;" horiz-adv-x="600" d="M117 182q35 45 49 226l61 782q8 106 -4 139q-16 49 19 49q82 0 299 -108q84 -41 90 -62q6 -12 -8 -30q-23 -43 -48 -316l-61 -760q0 -41 2 -59q18 -53 -12 -53q-78 0 -209 65.5t-178 126.5zM123 1698q-12 31 65 31h121l21 2h12q14 4 35 -25l180 -248q14 -41 -84 -41 q-23 0 -70 10l-18 19l-92 84l-86 86l-45 39q-35 31 -39 43z" />
<glyph unicode="&#xcd;" horiz-adv-x="600" d="M119 182q37 45 49 226l61 782q8 106 -2 139q-18 49 17 49q82 0 301 -108q84 -41 90 -62q4 -12 -10 -30q-23 -43 -47 -316l-60 -760q-2 -41 2 -59q18 -53 -12 -53q-78 0 -210 65.5t-179 126.5zM317 1485q-2 10 2 18l84 223q6 20 25 21l39 -4l63 4q125 8 142 -29 q6 -18 -19 -61l-28 -51l-56 -64q-8 -6 -47 -65q-23 -39 -80 -39q-109 0 -125 47z" />
<glyph unicode="&#xce;" horiz-adv-x="600" d="M123 182q37 45 51 226l59 782q8 106 -2 139q-18 49 17 49q82 0 301 -108q84 -41 90 -62q4 -12 -10 -30q-23 -43 -47 -316l-60 -760q-2 -41 2 -59q18 -53 -12 -53q-78 0 -210 65.5t-179 126.5zM174 1489l10 35l11 30q8 25 16 39q0 2 20 43l33 70l19 35q10 18 32 24 q16 6 88 7q88 0 158 -15q31 -6 49 -47l76 -180q6 -14 19 -37l10 -20q8 -23 -47 -23q-76 0 -123 12l-53 123q-10 25 -25 25q-6 0 -12 -15l-58 -96l-10 -22q-12 -18 -70 -19q-133 0 -143 31z" />
<glyph unicode="&#xcf;" horiz-adv-x="600" d="M76 1554l6 27l4 51q10 100 51 101q25 0 64 -15l37 -14q63 -25 79 -41l21 -23l20 -16l4 -10q4 -10 5 -25l-11 -104q2 -18 -8 -27l-12 -6l-29 -14l-82 24l-63 31q-53 24 -86 61zM117 182q35 45 49 226l61 782q8 106 -4 139q-16 49 19 49q82 0 299 -108q84 -41 92 -62 q4 -12 -10 -30q-23 -43 -48 -316l-59 -760q-2 -41 2 -59q18 -53 -12 -53q-78 0 -210 65.5t-179 126.5zM438 1542v12l8 70l7 53q4 45 41 45q18 0 47 -10l45 -12l82 -33q29 -12 38 -30.5t7 -26.5q2 -4 0 -19l-4 -55l2 -43q2 -35 -15 -59q-8 12 -14 12l-27 -4h-6 q-162 22 -211 100z" />
<glyph unicode="&#xd0;" horiz-adv-x="1175" d="M-47 1307q-6 14 10 14q55 0 146 16l145 27q55 10 147 10q268 0 471 -166q285 -233 285 -481q0 -279 -330 -557q-221 -188 -307 -188q-43 0 -153 61q-90 51 -142 92l-100 78q-20 14 -43 37q2 6 7 19.5t13 82.5l9 62l4 67l12 195l-39 -4l-22 -4q-18 0 -33 37 q-20 55 -19 112q4 59 29 60l37 -7h20l37 2l8 162q-53 61 -117.5 152.5t-74.5 120.5zM469 362q53 41 123 136q66 88 119 192q66 135 65 219q0 145 -170 146q-43 0 -90 -19l-4 -145h27l22 2l27 4q25 0 41 -41q20 -55 18 -115q-2 -59 -26 -57l-27 2q-8 2 -23 2h-36l-39 -2z" />
<glyph unicode="&#xd1;" horiz-adv-x="1130" d="M154 131l2 21q12 78 22 219l47 716q6 72 4 115l-2 98l-2 29l-8 21q-6 12 -2 18q4 4 27 4q86 0 229 -33q117 -27 157 -42t74 -44q-8 -63 11 -190l51 -358q2 -12 14 -13q6 0 8 8l15 551q0 59 -4 68l-2 8l-7 8q-6 27 25 27q43 0 219 -68l74 -28q49 -18 55 -35q0 -4 -10 -45 q-12 -47 -12 -53l-27 -244l-33 -549l-6 -238q-2 -47 8 -90q6 -25 -18 -24q-37 0 -143.5 24.5t-184.5 50.5q-111 39 -125 74q0 8 -4 37l-8 74l-10 78l-60 403q-2 12 -12 12q-6 0 -6 -8l-10 -422q-4 -186 28 -321q-98 14 -225 61q-135 51 -149 80zM360 1532q-2 6 2 35l9 59 q18 143 135 143q68 0 166 -61q84 -51 114 -51q41 0 43 43q0 31 15 31q10 0 22 -5q33 -10 39 -10h29l16 -8l17 -2l18 -14q23 -12 29 -23.5t4 -21.5q0 -10 -8 -31l-13 -64q-20 -109 -110 -108q-66 0 -148 47l-80 45q-31 18 -59 18q-43 0 -41 -57q2 -29 -27 -29q-25 0 -55 5 q-105 26 -117 59z" />
<glyph unicode="&#xd2;" horiz-adv-x="1220" d="M104 510q0 109 19 201q51 266 192 520l39 90q33 74 49 74q41 0 205 -76q139 -61 207 -102q154 -31 252 -93q106 -66 137 -168q23 -76 13 -225q-10 -164 -60 -336q-66 -225 -151 -321q-92 -102 -226 -103q-199 0 -432 142q-180 111 -223 231q-19 55 -21 166zM494 1651 q-10 27 65 28l62 2l59 -2l18 2l13 2q16 0 37 -26l180 -246q14 -43 -84 -43q-29 0 -70 10l-20 21l-88 82l-91 88l-43 37q-34 29 -38 45zM514 512q-27 -207 55 -270q39 -29 72 -29q111 0 180 293q41 174 53 293q16 193 -63 258q-35 29 -72 28q-61 0 -104 -100q-8 -18 -47 -147 q-58 -189 -74 -326z" />
<glyph unicode="&#xd3;" horiz-adv-x="1220" d="M106 510q-2 109 17 201q53 266 194 520q18 45 39 90q33 74 47 74q43 0 207 -76q137 -61 205 -102q156 -31 254 -93q106 -66 137 -168q23 -76 13 -225q-10 -164 -62 -336q-63 -225 -151 -321q-90 -102 -224 -103q-199 0 -432 142q-182 111 -223 231q-19 55 -21 166z M516 512q-27 -207 55 -270q37 -29 72 -29q109 0 180 293q41 174 54 293q16 193 -64 258q-35 29 -74 28q-59 0 -102 -100q-8 -18 -47 -147q-58 -189 -74 -326zM676 1448l86 223q8 20 24 21l37 -4l66 4q125 8 141 -29q6 -14 -18 -61l-29 -52l-59 -61l-37 -62q-29 -45 -86 -45 q-41 0 -80 13q-57 18 -45 53z" />
<glyph unicode="&#xd4;" horiz-adv-x="1220" d="M117 510q-2 109 16 201q51 266 193 520l41 90q31 74 47 74q41 0 204 -76q139 -61 207 -102q154 -31 252 -93q106 -66 137 -168q23 -76 13 -225q-10 -164 -60 -336q-66 -225 -151 -321q-92 -102 -225 -103q-199 0 -433 142q-180 111 -223 231q-18 55 -18 166zM524 512 q-27 -207 58 -270q37 -29 69 -29q111 0 180 293q43 174 54 293q18 193 -62 258q-37 29 -73 28q-59 0 -103 -100q-8 -18 -49 -147q-56 -189 -74 -326zM543 1460q-2 2 8 35l8 33q4 10 39 82l33 69l18 33q20 33 121 33q90 0 158 -14q31 -6 47 -48l35 -81l45 -101q4 -12 16 -35 l10 -20q8 -23 -47 -23q-76 0 -123 13l-53 123q-8 23 -24 22q-8 0 -13 -12q-12 -25 -35 -66l-22 -30l-12 -23q-8 -20 -68 -20q-131 -1 -141 30z" />
<glyph unicode="&#xd5;" horiz-adv-x="1220" d="M113 510q-2 109 16 201q53 266 195 520q18 45 38 90q33 74 48 74q43 0 206 -76q137 -61 205 -102q154 -31 257.5 -94.5t133.5 -166.5q23 -76 13 -225q-10 -164 -62 -336q-63 -225 -151 -321q-90 -102 -224 -103q-201 0 -432 142q-182 111 -223 231q-18 55 -20 166z M475 1491q-4 12 0 35l12 57q27 143 142 143q68 0 164 -59q84 -51 112 -51q39 0 43 43q2 31 17 31q8 0 30.5 -7.5t28.5 -7.5h29l16 -8l16 -2l19 -14q23 -12 31 -27q2 -8 0 -18q0 -10 -9 -31l-14 -64q-27 -109 -115 -108q-68 0 -147 47l-78 45q-27 16 -57 16q-43 0 -43 -55 q0 -29 -29 -29q-25 0 -55 5q-101 26 -113 59zM522 512q-27 -207 56 -270q37 -29 71 -29q109 0 180 293q41 174 52 293q18 193 -62 258q-35 29 -74 28q-59 0 -102 -100q-8 -18 -47 -147q-58 -189 -74 -326z" />
<glyph unicode="&#xd6;" horiz-adv-x="1220" d="M125 510q-6 109 8 201q43 266 176 520l37 92q29 72 45 72q41 0 209 -76q139 -63 209 -102q156 -31 256 -93q109 -66 143 -168q25 -74 21 -225q-6 -164 -49 -336q-57 -225 -142 -321q-88 -102 -221 -103q-199 0 -436 142q-184 111 -231 231q-21 55 -25 166zM377 1536l6 84 q8 104 57 104q29 0 68 -14l41 -14q63 -23 88 -45l27 -23l20 -16q10 -12 8 -37l-6 -113q0 -18 -12 -24l-15 -6l-26 -17l-23 6l-69 21l-74 33q-57 26 -90 61zM532 512q-18 -207 66 -270q39 -29 74 -29q109 0 168 293q37 174 43 293q10 193 -72 258q-35 29 -74 28 q-59 0 -100 -100q-6 -18 -41 -147q-52 -189 -64 -326zM805 1509l6 15l2 73l8 56q6 49 45 49q6 0 52 -12l53 -15l90 -33q35 -12 45 -40q2 -8 4 -17.5t4 -21.5l-6 -60l2 -43q2 -41 -16 -63q-6 12 -17 12l-10 -4h-12q-66 0 -135 27q-80 30 -115 77z" />
<glyph unicode="&#xd7;" d="M203 508l20 16l51 39q25 18 93 86l67 68l-47 92l-27 49l-20 41q-14 31 -27 39l-20 20l-4 9q0 25 73 45l58 16q51 14 74 14q33 0 45 -53q0 -8 28 -59l31 -56l111 117q25 27 28 39q12 29 31 29q55 0 115.5 -50.5t74.5 -111.5l-20 -14l-39 -31q-2 -2 -10 -9l-15 -13 q-6 -5 -14 -13l-149 -149l92 -170q4 -6 13 -21.5t13 -19.5l27 -31q8 -12 8 -25q0 -41 -71 -67q-61 -23 -107 -19l-47 4q-12 43 -55 125l-35 66l-47 -45q-72 -68 -92 -123q-12 -35 -29 -35q-37 0 -100 62q-72 69 -78 139z" />
<glyph unicode="&#xd8;" horiz-adv-x="1220" d="M10 160l123 114l-33 78q-31 72 -30 176q0 88 22 215q45 246 172 506q18 37 19 49l4 41q4 31 53 31q20 0 35 -4l31 -10h22q23 0 128.5 -38t195.5 -108q176 -47 286 -133l92 86q2 4 17 4q33 0 59 -37l25 -30l18 -21l6 -12q6 -18 -6 -31l-135 -137q16 -45 16 -102 q6 -152 -61 -435q-39 -174 -68 -233q-80 -162 -251 -162q-106 0 -256 56.5t-238 126.5l-88 -87q-25 -25 -47 -26q-12 0 -31.5 13t-23.5 26l-9 14q-6 10 -12 12q-12 12 -17.5 26t-17.5 32zM483 354q2 -53 9 -73q29 -82 102 -82q139 0 168 360l6 57zM500 592l278 262 q-6 74 -14 102q-14 55 -49 88q-29 27 -58 27q-102 0 -151 -430z" />
<glyph unicode="&#xd9;" horiz-adv-x="1161" d="M156 592q6 133 49 436q35 258 20 301q-8 23 -4 33q6 10 29 10q63 0 282 -100l9 -4q115 -53 127 -86q6 -16 -6 -37l-17 -33q-10 -10 -16 -61l-17 -127q-14 -100 -32 -254l-19 -209q-6 -80 10 -129q8 -25 29 -41.5t45 -16.5q51 0 76 103q53 221 74 614q10 184 8 215 q-4 49 -27 115q-12 37 23 37q68 0 231 -74q174 -76 191 -127q6 -18 -7 -35l-20 -28q-6 -8 -18 -181q-2 -35 -17 -161l-31 -291q-27 -258 -97 -364.5t-206 -106.5q-166 0 -382 101.5t-275 273.5q-20 59 -12 227zM342 1733q-8 27 66 28l63 2l57 -2l21 2l12 2q16 0 35 -26 l182 -246q14 -43 -84 -43q-25 0 -69 10l-21 21l-88 82l-90 88l-43 37q-35 29 -41 45z" />
<glyph unicode="&#xda;" horiz-adv-x="1161" d="M156 592q6 133 47 436q37 258 22 301q-8 23 -6 33q6 10 29 10q63 0 282 -100l9 -4q117 -53 127 -86q6 -16 -4 -37l-19 -33q-8 -10 -16 -61l-15 -127l-34 -254l-17 -209q-8 -80 8 -129q8 -25 30 -41.5t46 -16.5q51 0 76 103q51 221 72 614q10 184 8 215q-2 49 -25 115 q-12 37 23 37q68 0 231 -74q172 -76 189 -127q6 -18 -7 -35l-20 -28q-6 -8 -18 -181q-2 -35 -15 -161l-31 -291q-29 -258 -98 -364.5t-205 -106.5q-166 0 -382 101.5t-275 273.5q-20 59 -12 227zM530 1499q-4 10 0 19l84 223q8 20 27 18l37 -2l65 2q127 4 142 -26 q4 -14 -21 -62l-26 -51l-60 -64l-37 -61q-27 -43 -86 -43q-109 0 -125 47z" />
<glyph unicode="&#xdb;" horiz-adv-x="1161" d="M158 592q6 133 47 436q37 258 22 301q-8 23 -6 33q6 10 29 10q63 0 282 -100l9 -4q117 -53 127 -86q6 -16 -4 -37l-19 -33q-8 -10 -16 -61l-15 -127l-34 -254l-17 -209q-8 -80 8 -129q8 -25 30 -41.5t46 -16.5q51 0 76 103q51 221 72 614q10 184 8 215q-2 49 -25 115 q-12 37 23 37q68 0 231 -74q172 -76 191 -127q4 -18 -9 -35l-20 -28q-6 -8 -18 -181q-2 -35 -15 -161l-31 -291q-29 -258 -98 -364.5t-205 -106.5q-166 0 -382 101.5t-275 273.5q-20 59 -12 227zM428 1489l8 35l13 30q8 20 36 82l50 105q16 31 122 31q88 0 158 -15 q31 -6 49 -47l76 -180q6 -14 18 -37l11 -20q8 -23 -47 -23q-78 0 -125 12l-52 123q-12 25 -24 25q-6 0 -14 -15l-35 -63l-21 -33l-12 -22q-10 -18 -70 -19q-131 0 -141 31z" />
<glyph unicode="&#xdc;" horiz-adv-x="1161" d="M164 592q2 133 33 436q27 258 10 301q-8 23 -6 33q6 10 28 10q63 0 287 -100l8 -4q119 -53 131 -86q4 -16 -6 -37l-16 -33q-8 -10 -12 -61l-13 -127q-10 -100 -24 -254l-11 -209q-4 -80 15 -129q8 -25 33 -41q18 -16 45 -17q49 0 71 103q45 221 51 614q2 143 3 139 q0 57 -3 76q-4 49 -28 115q-14 37 20 37q68 0 234 -74q176 -78 194 -127q6 -18 -4 -35l-20 -28q-6 -8 -13 -181q0 -35 -10 -161l-20 -291q-18 -258 -85 -364.5t-202 -106.5q-166 0 -385 101.5t-285 273.5q-22 59 -20 227zM317 1565l2 28l5 56q6 104 57 104q20 0 68 -14 l40 -17q74 -29 89 -43l26 -22l21 -19l10 -14v-22l-8 -111q0 -20 -11 -27l-16 -6l-27 -16l-22 8l-70 18l-73 33q-54 25 -91 64zM741 1550l7 15l2 73l8 56q6 49 45 49q10 0 53 -12l51 -15l90 -33q55 -20 52 -61q2 -6 0 -18l-7 -60l2 -43q2 -41 -14 -63q-8 12 -14 12l-12 -4 h-13q-66 0 -137 27q-78 30 -113 77z" />
<glyph unicode="&#xdd;" horiz-adv-x="923" d="M-12 1319q-10 29 92 43q70 10 127 10q115 0 148.5 -10t41.5 -31q2 -8 0 -8l-2 -25q0 -20 17 -59l129 -326l53 283l10 84q6 43 4 53q-4 39 23 39q43 0 129 -39q12 -4 24 -10l140 -66q96 -45 106 -71q4 -10 -22 -33q-10 -16 -21 -45l-51 -147q-57 -166 -133 -517 q-74 -338 -64 -389l9 -37q4 -27 -31 -26q-66 0 -217 63q-160 66 -178 113q-4 10 8 29q45 70 63 139l33 121l-332 671q-61 127 -88 162q-8 11 -18 29zM332 1518l78 223q6 20 24 18l37 -2l66 2q127 4 141 -26q8 -18 -14 -62l-29 -51l-53 -64q-10 -8 -39 -61q-23 -43 -84 -43 q-41 0 -80 12q-59 19 -47 54z" />
<glyph unicode="&#xde;" horiz-adv-x="1046" d="M-80 1073q2 2 168 37l37 4l2 76q4 117 -4 139q-20 49 12 49q23 0 131 -39q86 -31 144 -55q113 -49 122 -76q4 -12 -6 -30l-14 -45q215 -51 399 -285q127 -162 127 -279q0 -152 -186 -293q-102 -80 -164 -96q-31 -6 -65 -16q-18 -8 -35 -8q-23 0 -68 43l-57 55l-6 8 l-2 -57v-103q0 -37 4 -59q20 -53 -10 -53q-78 0 -213.5 65.5t-180.5 126.5q35 51 41 226l17 387l-29 36l-84 97q-55 61 -72 116zM465 494q115 57 184 139q57 66 58 112q0 86 -127 86q-68 0 -105 -20z" />
<glyph unicode="&#xdf;" horiz-adv-x="892" d="M55 158l11 47l4 61l2 62l53 995q-2 35 10 44t64 9q47 0 151 -14l90 -12q160 -23 224 -56q92 -49 110 -180q4 -33 4 -82q6 -186 -51 -221q-14 -10 -117 -25q84 -25 117 -47q49 -33 74 -100q25 -78 37 -205q10 -127 -2 -225q-33 -242 -158 -242q-72 0 -244 94l-47 25v-29 l6 -26l8 -23q8 -25 -18 -24q-53 0 -179 44t-143 93q-8 21 -6 37zM383 279q-2 -68 35 -95q18 -14 37 -14q84 0 82 276v109q-2 78 -17 121q-27 80 -121 108zM403 887l39 -6q49 0 70 55q8 20 14 96q16 141 0 185q-14 43 -53 43q-33 0 -41 -76z" />
<glyph unicode="&#xe0;" horiz-adv-x="989" d="M59 354q0 72 15 164q33 213 112 383q45 96 54 148l22 2q14 0 53 -9q109 -31 189 -90q59 0 121 -22l-7 53q-12 10 -14 16q-6 20 21 21q53 0 176 -41q137 -45 149 -82q2 -6 -10 -20.5t-12 -79.5v-80l-4 -88l4 -500q0 -37 2 -86l10 -31q10 -33 -39 -32q-57 0 -164 32 q-119 37 -137 76q-4 14 2 70l14 100l-2 6q-2 6 -10 8q-2 0 -4 -4l-4 -16q-23 -90 -86.5 -171t-101.5 -81q-55 0 -175 59q-100 51 -139 119q-35 61 -35 176zM221 1397q-12 31 64 30h123l20 3h12q12 0 35 -27l189 -246q16 -41 -80 -41q-37 0 -72 10l-23 19l-90 82l-92 88 l-43 37q-39 35 -43 45zM389 383q-25 -205 41 -205q49 0 107 193q45 154 64.5 268.5t8.5 171.5l-4 12q-12 33 -55 39q-45 0 -111 -223q-10 -35 -28 -127q-11 -39 -23 -129z" />
<glyph unicode="&#xe1;" horiz-adv-x="989" d="M57 354q0 72 15 164q33 213 112 383q45 96 56 148l20 2q14 0 55 -9q106 -31 189 -90q59 0 121 -22l-7 53q-12 10 -14 16q-8 20 19 21q53 0 178 -41q135 -45 149 -82q2 -6 -10 -20.5t-14 -79.5v-80l-4 -88l4 -500q0 -37 4 -86l10 -31q10 -33 -39 -32q-59 0 -164 32 q-119 37 -137 76q-6 14 2 70l12 100l-2 6q-2 6 -10 8l-4 -4l-4 -16q-20 -90 -84 -171t-102 -81q-57 0 -175 59q-102 51 -139 119q-37 61 -37 176zM387 383q-23 -205 43 -205q49 0 105 193q45 154 65.5 268.5t9.5 171.5l-6 12q-12 33 -55 39q-43 0 -109 -223 q-12 -35 -30 -127q-9 -39 -23 -129zM412 1180l75 223q6 20 25 20l37 -4l67 4q125 8 144 -28q4 -14 -19 -62l-26 -51l-56 -61q-10 -14 -35.5 -60.5t-84.5 -46.5q-106 0 -125 47q-4 11 -2 19z" />
<glyph unicode="&#xe2;" horiz-adv-x="989" d="M59 354q0 72 15 164q33 213 112 383q45 96 56 148l20 2q14 0 55 -9q106 -31 189 -90q59 0 121 -22l-6 53q-12 10 -15 16q-8 20 19 21q53 0 178 -41q135 -45 149 -82q2 -6 -10 -20.5t-12 -79.5l-2 -80l-2 -88l2 -500q0 -37 4 -86l10 -31q10 -33 -39 -32q-57 0 -164 32 q-119 37 -137 76q-6 14 2 70l12 100l-2 6q-2 6 -8 8q-2 0 -6 -4l-4 -16q-20 -90 -83.5 -171t-102.5 -81q-57 0 -174 59q-100 51 -140 119q-37 61 -37 176zM299 1153q-4 6 6 35l10 31q2 8 35 81l31 70l16 33q12 23 33 29q31 4 88 4q90 0 158 -13q33 -8 49 -47l84 -182 q6 -14 20 -37l13 -20q6 -20 -49 -21q-72 0 -125 10l-58 125q-10 23 -22 23q-6 0 -15 -14q-10 -27 -32 -64l-21 -31l-10 -24q-8 -18 -68 -19q-133 0 -143 31zM389 383q-23 -205 43 -205q49 0 105 193q45 154 65.5 268.5t9.5 171.5l-4 12q-14 33 -57 39q-43 0 -109 -223 q-10 -35 -30 -127q-9 -39 -23 -129z" />
<glyph unicode="&#xe3;" horiz-adv-x="989" d="M57 354q0 72 15 164q33 213 112 383q45 96 56 148l22 2q14 0 53 -9q109 -31 189 -90q59 0 121 -22l-7 53q-12 10 -14 16q-8 20 19 21q55 0 178 -41q137 -45 149 -82q2 -6 -10 -20.5t-12 -79.5v-80l-4 -88l2 -500q2 -37 4 -86l10 -31q10 -33 -39 -32q-57 0 -164 32 q-119 37 -137 76q-6 14 2 70l12 100l-2 6q-2 6 -8 8q-2 0 -4 -4l-4 -16q-23 -90 -86.5 -171t-101.5 -81q-57 0 -175 59q-100 51 -139 119q-37 61 -37 176zM248 1296q23 131 133 131h2q68 0 166 -61q84 -51 115 -51q39 0 41 43q-2 31 16 31q6 0 20 -5l27 -8l31 -2l22 -6 l15 -4l20 -14q16 -10 25 -25q10 -27 -4 -102q-23 -121 -115 -121q-66 0 -148 47l-79 45q-33 18 -60 18q-43 0 -41 -57q2 -27 -28 -27q-133 0 -154 56q-16 40 -4 112zM387 383q-23 -205 43 -205q49 0 107 193q45 154 64.5 268.5t8.5 171.5l-4 12q-12 33 -55 39 q-45 0 -111 -223q-10 -35 -30 -127q-9 -39 -23 -129z" />
<glyph unicode="&#xe4;" horiz-adv-x="989" d="M55 354q0 72 15 164q33 213 112 383q45 96 56 148l22 2q14 0 53 -9q109 -31 189 -90q59 0 121 -22l-7 53q-12 10 -14 16q-8 20 19 21q55 0 178 -41q137 -45 149 -82q2 -6 -10 -20.5t-12 -79.5v-80l-4 -88l2 -500q2 -37 4 -86l10 -31q10 -33 -39 -32q-57 0 -164 32 q-119 37 -137 76q-6 14 2 70l14 100l-4 6q-2 6 -8 8q-2 0 -4 -4l-4 -16q-23 -90 -86.5 -171t-101.5 -81q-57 0 -175 59q-100 51 -139 119q-37 61 -37 176zM180 1231l4 26l4 56q8 104 58 104q27 0 69 -14l41 -14q59 -20 88 -46l25 -22l20 -18q10 -8 11 -35l-8 -113 q0 -18 -11 -25l-14 -6l-29 -16l-22 6l-70 21l-72 32q-63 29 -94 64zM385 383q-23 -205 43 -205q49 0 107 193q45 154 64 268.5t9 171.5l-4 12q-12 33 -55 39q-45 0 -111 -223q-10 -35 -28 -127q-11 -39 -25 -129zM592 1210l6 13l2 73l8 56q6 49 45 49q10 0 54 -12l51 -15 l90 -33q33 -16 43 -36.5t10 -42.5l-8 -58l4 -49q4 -39 -20 -63q-68 0 -154 32q-96 37 -131 86z" />
<glyph unicode="&#xe5;" horiz-adv-x="989" d="M78 354q0 72 14 164q33 213 113 383q45 96 55 148l23 2q14 0 53 -9q106 -31 188 -90q59 0 121 -22l-6 53q-12 10 -14 16q-8 20 18 21q55 0 178 -41q135 -45 150 -82q2 -6 -10.5 -20.5t-12.5 -79.5l-2 -80l-2 -88l2 -500q2 -37 4 -86l11 -31q10 -33 -39 -32q-57 0 -164 32 q-119 37 -137 76q-6 14 2 70l12 100l-2 6q-2 6 -8 8q-2 0 -7 -4l-4 -16q-20 -90 -83.5 -171t-102.5 -81q-57 0 -174 59q-100 51 -139 119q-37 61 -37 176zM295 1378q0 70 46 113t118 43q90 0 174 -61q133 -96 133 -222q0 -45 -25 -84q-43 -70 -135 -69q-96 0 -180 57 q-131 92 -131 223zM408 383q-23 -205 43 -205q49 0 104 193q47 154 66.5 268.5t9.5 171.5l-4 12q-12 33 -58 39q-43 0 -108 -223q-10 -35 -31 -127q-8 -39 -22 -129zM446 1315q27 -72 109 -72q37 0 53.5 22.5t1.5 57.5q-27 72 -108 72q-41 0 -56 -23q-14 -22 0 -57z" />
<glyph unicode="&#xe6;" horiz-adv-x="1368" d="M-33 307q0 78 31 203q45 182 152 387q18 33 14 55q-4 12 0 21q8 6 33 6q41 0 123.5 -26.5t140.5 -63.5q102 -33 147 -64l45 121q-14 37 49 37q115 0 207 -57q147 -25 236 -78q104 -63 125 -182q10 -59 0 -234q-4 -59 -31 -57h-14l-133 4h-289l-2 -19q-10 -96 4 -137 q23 -61 82 -61q35 0 67 39q27 33 35 71q6 29 53 29q41 0 121 -27q88 -29 99 -57q2 -6 -7 -27l-20 -30q-111 -170 -270 -170q-109 0 -217 43q-115 45 -181 123l-12 -21q-80 -143 -176 -143q-109 0 -241 77.5t-161 159.5q-10 31 -10 78zM266 252q0 -45 6 -62q16 -47 64 -47 q51 0 119 209q31 100 53 226q10 59 12 98q4 39 -2 57l-8 17q-4 8 -18 22q-23 16 -43 16q-51 0 -109 -186q-43 -133 -61 -248q-11 -71 -13 -102zM838 586l147 -2l2 14l10 57q2 12 2 25q12 123 -61 123q-41 0 -72 -92q-5 -21 -28 -125z" />
<glyph unicode="&#xe7;" horiz-adv-x="901" d="M-100 389q0 154 86 383q45 119 76.5 163t29.5 70.5t25 26.5q70 0 178 -31.5t160 -70.5q76 -8 155 -43q96 -43 117 -101q27 -70 18 -163l-4 -39l2 -35q2 -25 -32 -25q-172 0 -295 97q20 55 22 79l8 68q6 55 -22 80q-18 10 -31 10q-39 0 -100 -209q-29 -92 -47 -211 q-25 -158 -6 -209q23 -59 82 -59q86 0 110 137q10 57 49 58q49 0 113 -19l96 -29q33 -10 37 -22q4 -10 0 -19l-10 -14l-15 -37q-51 -129 -108 -182q-74 -68 -170 -68q-147 0 -324 101q-106 59 -153 129.5t-47 183.5zM63 -358q-2 8 19 49q47 88 27 221q27 20 53 20 q33 0 69 -12q29 -8 76 -35q51 0 66 -37q14 -41 -29 -135l-18 -39l-15 -45q-20 -57 -78 -57q-23 0 -36 6l-50 21l-43 10l-16 12z" />
<glyph unicode="&#xe8;" horiz-adv-x="925" d="M41 406q0 66 14 149q41 264 117 391q16 29 18 43v23q4 23 39 22q94 0 295 -67l31 -11q133 -27 211 -82q160 -113 133 -405q-4 -47 -45 -47l-123 2l-272 -6q-25 -4 -68 -6q-6 -57 -6 -99q0 -43 8 -67q20 -55 68 -56q57 0 123 103q20 31 57 31q57 0 152.5 -35t105.5 -62 q6 -12 -14 -32l-21 -33q-53 -76 -143 -129q-96 -55 -182 -56q-129 0 -277 84q-156 88 -199 201q-22 58 -22 144zM207 1356q-10 31 65 30h123l19 3h12q14 0 35 -27l190 -246q14 -41 -82 -41q-37 0 -71 10l-21 19l-90 82l-92 88l-43 37q-41 35 -45 45zM426 635h149q6 35 7 88 l-2 55q0 90 -58 90q-33 0 -55 -57q-14 -41 -39 -162z" />
<glyph unicode="&#xe9;" horiz-adv-x="925" d="M43 406q0 66 12 149q43 264 119 391q16 29 19 43v23q4 23 38 22q94 0 295 -67l31 -11q133 -27 209 -82q160 -113 133 -405q-4 -47 -43 -47l-123 2l-272 -6q-25 -4 -68 -6q-8 -57 -8 -99q0 -43 10 -67q20 -55 68 -56q57 0 123 103q20 31 55 31q57 0 153.5 -35t106.5 -62 q4 -12 -14 -32l-23 -33q-51 -76 -141 -129q-96 -55 -184 -56q-127 0 -275 84q-156 88 -198 201q-23 58 -23 144zM385 1135q-4 10 0 18l74 223q8 20 26 21l35 -4l70 4q123 8 141 -29q6 -14 -18 -61l-25 -52l-57 -61l-35 -60q-27 -46 -86 -47q-107 1 -125 48zM428 635h150 q6 35 4 88v55q0 90 -60 90q-33 0 -53 -57q-16 -41 -39 -162z" />
<glyph unicode="&#xea;" horiz-adv-x="925" d="M49 406q0 66 12 149q43 264 119 391q16 29 19 43v23q4 23 39 22q94 0 294 -67l31 -11q133 -27 209 -82q160 -113 133 -405q-4 -47 -43 -47l-123 2l-272 -6q-25 -4 -68 -6q-8 -57 -8 -99q0 -43 10 -67q20 -55 68 -56q57 0 123 103q20 31 55 31q57 0 153.5 -35t106.5 -62 q4 -12 -14 -32l-23 -33q-51 -76 -141 -129q-96 -55 -184 -56q-127 0 -275 84q-156 88 -198 201q-23 58 -23 144zM260 1147q-2 6 6 35l13 30q2 8 34 82l31 70l16 33q10 23 31 28q33 4 90 5q88 0 158 -13q31 -8 49 -47l82 -182q6 -14 21 -37l12 -21q8 -20 -47 -20 q-74 0 -125 10l-58 125q-10 23 -22 23q-6 0 -16 -15q-10 -27 -33 -63l-19 -31l-12 -24q-8 -18 -65 -19q-134 0 -146 31zM434 635h150q6 35 4 88v55q0 90 -60 90q-31 0 -53 -57q-16 -41 -39 -162z" />
<glyph unicode="&#xeb;" horiz-adv-x="925" d="M47 406q0 66 12 149q43 264 119 391q16 29 19 43v23q4 23 39 22q94 0 294 -67l31 -11q133 -27 209 -82q160 -113 133 -405q-4 -47 -43 -47l-123 2l-272 -6q-25 -4 -68 -6q-8 -57 -8 -99q0 -43 10 -67q20 -55 68 -56q57 0 123 103q20 31 55 31q57 0 153.5 -35t106.5 -62 q4 -12 -14 -32l-23 -33q-51 -76 -141 -129q-96 -55 -184 -56q-129 0 -275 84q-156 88 -198 201q-23 58 -23 144zM133 1231l4 26l4 56q6 104 58 104q27 0 67 -14l43 -14q59 -20 86 -46l27 -22l20 -18q10 -8 9 -35l-7 -113q0 -18 -10 -25l-14 -6l-29 -16l-22 6l-70 21l-72 32 q-63 29 -94 64zM432 635h150q4 35 4 88v55q0 90 -60 90q-33 0 -53 -57q-16 -41 -39 -162zM545 1210l6 13l2 73l8 56q6 49 45 49q10 0 53 -12l52 -15l90 -33q33 -16 45 -38q6 -18 8 -41l-8 -58l4 -49q4 -39 -21 -63q-70 0 -155 32q-94 37 -129 86z" />
<glyph unicode="&#xec;" horiz-adv-x="481" d="M-51 1374q-10 31 65 31h123l19 2h12q14 0 35 -27l190 -245q14 -41 -82 -41q-37 0 -69 10l-23 18l-90 82l-92 88l-43 37q-41 35 -45 45zM72 125q-4 10 2 61q4 20 10 70l2 78l20 393l7 229q0 20 -7 39l-6 17q-10 23 29 22q45 0 170 -49l98 -39q41 -16 45 -31q4 -10 0 -20 l-6 -18q-6 -12 -8 -48l-6 -102l-10 -348q-6 -195 -2 -258l4 -76l2 -31q12 -29 -8 -28q-72 0 -198 53t-138 86z" />
<glyph unicode="&#xed;" horiz-adv-x="481" d="M74 125q-4 10 2 61q4 20 8 70l4 78l21 393l6 229q0 20 -6 39l-7 17q-10 23 29 22q45 0 168 -49l100 -39q41 -16 45 -31q4 -10 0 -20l-6 -18q-6 -12 -8 -48l-6 -102l-10 -348q-6 -195 -2 -258l4 -76l2 -31q12 -29 -8 -28q-72 0 -198 53t-138 86zM162 1155q-4 10 0 19 l74 223q8 20 24 20l37 -4l68 4q125 8 143 -28q6 -14 -19 -62l-24 -51l-57 -62l-35 -60q-27 -46 -86 -46q-107 0 -125 47z" />
<glyph unicode="&#xee;" horiz-adv-x="481" d="M2 1167l8 35l10 31q6 23 33 82l49 102q12 25 28.5 29t92.5 4q88 0 158 -12q31 -8 47 -47l39 -82l47 -101q8 -23 18 -37l15 -20q8 -20 -49 -21q-76 0 -123 11l-60 125q-10 23 -24 22q-6 0 -12 -14q-10 -23 -35 -64l-21 -30l-8 -25q-12 -18 -70 -18q-133 -1 -143 30z M80 125q-4 10 2 61q4 20 10 70l2 78l21 393l6 229q0 20 -6 39l-6 17q-10 23 28 22q45 0 170 -49l99 -39q41 -16 45 -31q4 -10 0 -20l-7 -18q-6 -12 -8 -48l-6 -102l-10 -348q-6 -195 -2 -258l4 -76l2 -31q12 -29 -8 -28q-72 0 -198 53t-138 86z" />
<glyph unicode="&#xef;" horiz-adv-x="481" d="M-16 1266q0 41 2 82q2 63 14 71q4 -10 12 -10l17 4l10 -2l37 -4q33 -8 83 -37t60 -55l-2 -10l-4 -15l-2 -63l-8 -56q-6 -45 -39 -45q-4 0 -25 11l-33 12l-30 10l-41 25l-21 10l-10 10q-4 4 -12 8l-6 11q-6 16 -2 43zM74 125q-4 10 4 61q2 20 8 70l2 78l21 393l6 229 q0 20 -6 39l-7 17q-8 23 31 22q43 0 168 -49l98 -39q41 -16 47 -31q2 -10 -2 -20l-6 -18q-4 -12 -8 -48l-6 -102l-10 -348q-6 -195 -2 -258l4 -76l2 -31q12 -29 -8 -28q-72 0 -198 53t-138 86zM283 1235q-2 8 0 20l10 117q2 6 6 12l10 7l23 12l10 -2q57 -12 88 -35l37 -25 l16 -8q10 -4 21 -16l16 -23l10 -8l-6 -41l-2 -43q0 -27 -12 -55q-16 -39 -37 -39q-20 0 -61 20l-21 11l-31 14q-14 6 -42.5 37t-34.5 45z" />
<glyph unicode="&#xf0;" horiz-adv-x="929" d="M63 418q0 74 15 170q35 215 112 360q6 10 11 56q2 27 32 26q119 0 289 -72q-53 61 -90 89l-250 180q-25 16 -47 28q-31 20 -37 31q-10 25 64 70q129 80 170 80q27 0 59 -41q6 -8 27 -33l59 -72l141 107q8 6 15 6q27 0 55 -29l43 -43l49 -37l13 -18q4 -16 -2 -23l-154 -94 l-33 -22l23 -29l41 -49q160 -193 196 -287q25 -68 33 -192q4 -117 -12 -238q-55 -365 -262 -365q-141 0 -342 101q-154 78 -195 186q-23 62 -23 154zM399 440q-4 -129 23 -197.5t80 -68.5q78 0 108 217q20 135 21 236q0 109 -23.5 179.5t-79.5 70.5q-20 0 -30 -9 q-31 -14 -64 -159q-29 -124 -35 -269z" />
<glyph unicode="&#xf1;" horiz-adv-x="931" d="M88 1004q-6 27 14 26l33 -6l84 -25l115 -38q63 -20 74 -50q2 -8 -5 -28l-2 -35l-8 -186l-4 -44v-38l2 -7l6 -6q6 4 4 8l2 15l9 53q20 170 55 271.5t78 107.5q18 0 117 -31q158 -49 188 -127q16 -43 22 -235q8 -186 0 -367q-8 -182 7 -244q8 -33 -31 -32q-68 0 -199 47 q-121 43 -131 69q-4 10 4 27q18 39 29 264l6 164q2 20 2 123l-6 127v22q-2 12 -10 13l-6 -4l-9 -11l-12 -39l-24 -67q-31 -86 -64 -385q-16 -156 -16 -203q0 -55 16 -129l2 -14l-22 -6q-53 0 -170 41q-127 45 -142 81q-2 8 -2 27l2 39l4 72l2 45v571q0 83 -14 144zM139 1296 q20 131 131 131h2q68 0 168 -61q82 -51 113 -51q39 0 41 43q-2 31 18 31q6 0 19 -5l28 -8l29 -2l23 -6l14 -4l23 -14q14 -10 22 -25q10 -27 -4 -102q-23 -121 -113 -121q-68 0 -149 47l-78 45q-33 18 -61 18q-43 0 -39 -57q0 -27 -29 -27q-133 0 -156 56q-14 40 -2 112z" />
<glyph unicode="&#xf2;" horiz-adv-x="929" d="M53 416q0 104 25 233q33 168 102 299q14 25 10 53.5t31 28.5q49 0 143.5 -24.5t145.5 -47.5q102 0 217 -65q102 -59 131 -135q14 -37 23 -150q8 -109 0 -202q-14 -160 -66 -271q-72 -158 -203 -158q-143 0 -342 101q-154 78 -194 186q-23 60 -23 152zM199 1348 q-12 31 63 30h123l21 2h12q14 0 35 -26l190 -246q14 -41 -82 -41q-37 0 -72 10l-20 19l-90 82l-94 88l-41 37q-41 35 -45 45zM391 440q-6 -266 98 -266q80 0 109 217q23 154 23 244q2 242 -107 242q-55 0 -92 -168q-27 -119 -31 -269z" />
<glyph unicode="&#xf3;" horiz-adv-x="929" d="M55 416q0 104 25 233q33 168 102 299q14 25 10 53.5t31 28.5q49 0 143.5 -24.5t145.5 -47.5q102 0 217 -65q102 -59 131 -135q14 -37 23 -150q8 -109 0 -202q-14 -160 -66 -271q-72 -158 -203 -158q-143 0 -342 101q-154 78 -194 186q-23 60 -23 152zM389 1147l76 223 q6 20 24 21l37 -5l68 5q125 8 141 -29q6 -14 -16 -62l-27 -51l-55 -61q-10 -14 -36 -60.5t-87 -46.5q-106 0 -123 47q-4 11 -2 19zM393 440q-6 -266 99 -266q80 0 108 217q23 154 23 244q2 242 -107 242q-55 0 -94 -168q-25 -119 -29 -269z" />
<glyph unicode="&#xf4;" horiz-adv-x="929" d="M61 416q0 104 25 233q33 168 102 299q14 25 10.5 53.5t30.5 28.5q47 0 146 -24q92 -25 143 -48q102 0 217 -65q102 -59 131 -135q14 -37 23 -150q8 -109 -2 -202q-14 -160 -64 -271q-74 -158 -202 -158q-143 0 -342 101q-154 78 -195 186q-23 60 -23 152zM250 1139 q-4 6 6 35l12 30q0 8 33 82l31 70l16 33q12 23 33 28q31 4 88 4q90 0 160 -12q31 -8 47 -47l84 -182q6 -14 20 -37l13 -21q6 -20 -50 -20q-72 0 -122 10l-60 125q-10 23 -22 23q-6 0 -15 -15q-10 -27 -32 -63l-21 -31l-10 -25q-8 -18 -68 -18q-133 0 -143 31zM399 440 q-6 -266 99 -266q80 0 108 217q20 154 23 244q2 242 -107 242q-57 0 -94 -168q-27 -119 -29 -269z" />
<glyph unicode="&#xf5;" horiz-adv-x="929" d="M59 416q0 104 25 233q33 168 102 299q14 25 10.5 53.5t30.5 28.5q49 0 143.5 -24.5t145.5 -47.5q104 0 217 -65q102 -59 131 -135q14 -37 23 -150q8 -109 0 -202q-14 -160 -66 -271q-72 -158 -203 -158q-143 0 -342 101q-154 78 -194 186q-23 60 -23 152zM193 1282 q23 131 133 131h2q68 0 166 -61q84 -51 114 -52q39 0 41 43q-2 31 17 31q6 0 20 -4l29 -8l28 -2l23 -6l14 -4l21 -15q16 -10 24 -24q10 -27 -4 -103q-23 -121 -114 -121q-66 0 -148 48l-80 45q-31 18 -59 18q-43 0 -39 -57q0 -27 -31 -27q-133 0 -153 55q-14 41 -4 113z M397 440q-4 -266 101 -266q78 0 106 217q23 154 23 244q4 242 -107 242q-55 0 -92 -168q-27 -119 -31 -269z" />
<glyph unicode="&#xf6;" horiz-adv-x="929" d="M59 416q0 104 25 233q33 168 104 299q12 25 9.5 53.5t29.5 28.5q49 0 148 -24q90 -25 143 -48q102 0 217 -65q102 -59 131 -135q14 -37 21 -150q8 -109 0 -202q-14 -160 -66 -271q-72 -158 -203 -158q-141 0 -339 101q-156 78 -197 186q-23 60 -23 152zM137 1231l4 26 l4 56q6 104 58 104q27 0 67 -14l43 -14q59 -20 86 -46l27 -22l20 -18q10 -8 9 -35l-6 -113q0 -18 -11 -25l-14 -6l-29 -16l-22 6l-70 21l-72 32q-63 29 -94 64zM399 440q-6 -266 99 -266q78 0 108 217q20 154 23 244q2 242 -107 242q-57 0 -94 -168q-27 -119 -29 -269z M549 1210l6 13l2 73l8 56q6 49 45 49q10 0 54 -12l51 -15l90 -33q33 -16 45 -38q6 -18 8 -41l-8 -58l4 -49q4 -39 -20 -63q-70 0 -156 32q-94 37 -129 86z" />
<glyph unicode="&#xf7;" horiz-adv-x="1124" d="M20 477v113h1078v-113h-1078zM432 119q0 51 37 88t88 37q53 0 90 -36t37 -89t-37 -90t-90 -37t-89 37t-36 90zM432 936q0 51 37 89t88 38t89 -38t38 -89q0 -53 -37 -90t-90 -37t-89 37t-36 90z" />
<glyph unicode="&#xf8;" horiz-adv-x="929" d="M-84 121l113 106l-15 39q-37 88 -20 242q16 152 69 283q47 111 64 233q25 12 59 12q125 0 322 -94q131 0 151 -41l3 -6q31 -10 63 -37l63 64q16 14 33 14q14 0 35 -25h10q39 -41 33 -77l-100 -107q23 -92 22 -188q0 -111 -28 -226q-47 -180 -113 -254q-68 -80 -166 -79 q-98 0 -207.5 39.5t-187.5 103.5l-96 -92q-61 10 -86 55l-13 23zM315 479l244 232q-20 152 -84 151q-117 0 -160 -383zM326 309q20 -117 96 -116q102 0 135 333z" />
<glyph unicode="&#xf9;" horiz-adv-x="929" d="M90 391q-4 180 14 338l15 111q12 106 0 141t-10 43q2 12 22 12q47 0 119 -28l123 -50q78 -31 86 -53q2 -6 -6 -22q-31 -57 -43 -355l-9 -174l2 -63v-21q2 -10 13 -14q6 4 8 6l8 19q35 88 66 219q37 156 51 284l18 150q4 39 -4 65q-6 25 19 25q49 0 172 -45 q133 -47 145 -80q2 -6 -2 -20l-12 -23q-4 -8 -6 -37l-13 -127l-12 -422q-4 -178 16 -258q8 -33 -24 -32q-84 0 -184 43q-92 39 -107 79q-4 8 -2 27l18 254q-4 8 -12 8q-2 0 -4 -4l-6 -14l-8 -47q-18 -100 -78 -220q-55 -106 -92 -106q-31 0 -111 33q-113 47 -145 131 q-21 55 -25 227zM162 1397q-12 31 63 30h123l21 3h12q12 0 35 -27l188 -246q16 -41 -80 -41q-37 0 -71 10l-23 19l-90 82l-92 88l-43 37q-39 35 -43 45z" />
<glyph unicode="&#xfa;" horiz-adv-x="929" d="M86 391q-4 180 16 338l13 111q14 106 0 141q-12 35 -11 43q2 12 23 12q47 0 119 -28l123 -50q78 -31 86 -53q2 -6 -6 -22q-31 -57 -43 -355l-9 -174l2 -63l2 -21q0 -10 11 -14q8 4 8 6l8 19q35 88 66 219q37 156 53 284l16 150q4 39 -2 65q-6 25 17 25q49 0 177 -46 t140 -79q4 -6 -2 -20l-12 -23q-4 -8 -7 -37l-10 -127l-12 -422q-6 -178 14 -258q10 -33 -22 -32q-84 0 -181.5 40.5t-111.5 81.5q-4 8 -2 27l18 254q-4 8 -12 8l-4 -4l-4 -14l-10 -47q-18 -100 -78 -220q-53 -106 -90 -106q-31 0 -111 33q-115 47 -147 131q-21 55 -25 227z M319 1149q-4 10 0 18l74 224q8 20 25 20l37 -4l67 4q125 8 144 -29q6 -14 -19 -61l-24 -51l-58 -62l-35 -60q-27 -46 -86 -46q-107 0 -125 47z" />
<glyph unicode="&#xfb;" horiz-adv-x="929" d="M90 391q-4 180 14 338l15 111q12 106 0 141t-10 43q2 12 22 12q47 0 119 -28l123 -50q78 -31 86 -53q2 -6 -6 -22q-31 -57 -43 -355l-9 -174l2 -63v-21q2 -10 13 -14q6 4 8 6l8 19q35 88 66 219q37 156 51 284l18 150q4 39 -4 65q-6 25 19 25q49 0 172 -45 q133 -47 145 -80q2 -6 -2 -20l-12 -23q-4 -8 -6 -37l-13 -127l-12 -422q-4 -178 16 -258q8 -33 -24 -32q-84 0 -184 43q-92 39 -107 79q-4 8 -2 27l18 254q-4 8 -12 8q-2 0 -4 -4l-6 -14l-8 -47q-18 -100 -78 -220q-55 -106 -92 -106q-31 0 -111 33q-113 47 -145 131 q-21 55 -25 227zM219 1153q2 4 0 8l8 13q2 2 6.5 13t7.5 17t13 31q18 51 47 98l35 62q20 35 61 35q76 0 193 -19q47 -8 60.5 -14t19.5 -31l41 -123l49 -115q12 -27 -15 -26q-106 0 -163 26l-41 113h-6l-39 -31l-17 -30l-18 -31q-29 -47 -49 -43l-15 2l-43 2h-24 q-2 0 -12.5 3t-18.5 5l-29 6q-39 13 -51 29z" />
<glyph unicode="&#xfc;" horiz-adv-x="929" d="M88 391q-4 180 14 338l15 111q12 106 0 141q-14 35 -11 43q0 12 21 12q49 0 121 -28l123 -50q78 -31 86 -53q2 -6 -6 -22q-31 -57 -45 -355l-7 -174v-63l2 -21q2 -10 13 -14q6 4 8 6l6 19q37 88 68 219q37 156 51 284l16 150q6 39 -2 65q-6 25 19 25q49 0 172 -45 q133 -47 145 -80q2 -6 -2 -20l-12 -23q-4 -8 -6 -37l-13 -127l-12 -422q-4 -178 16 -258q8 -33 -24 -32q-84 0 -185 43q-92 39 -108 79q-2 8 -2 27l18 254q-2 8 -10 8q-2 0 -4 -4l-6 -14l-8 -47q-18 -100 -78 -220q-55 -106 -92 -106q-31 0 -111 33q-113 47 -145 131 q-21 55 -25 227zM135 1231l4 26l4 56q8 104 58 104q27 0 69 -14l41 -14q59 -20 88 -46l25 -22l20 -18q10 -8 11 -35l-9 -113q0 -18 -10 -25l-14 -6l-29 -16l-22 6l-70 21l-72 32q-63 29 -94 64zM547 1210l6 13l2 73l8 56q6 49 45 49q10 0 54 -12l51 -15l90 -33 q33 -16 43 -36.5t10 -42.5l-8 -58l4 -49q4 -39 -21 -63q-68 0 -153 32q-96 37 -131 86z" />
<glyph unicode="&#xfd;" horiz-adv-x="921" d="M-43 -121q0 37 49 78q68 55 113 55q20 0 28 -10l7 -10q14 -37 106 -87t141 -50q43 0 62 34q23 43 24 119l2 66l13 278q-2 8 -8 8q-4 0 -7 -4l-4 -22l-24 -92l-45 -133q-31 -94 -78 -95q-74 0 -173.5 65.5t-123.5 133.5q-37 98 -21 299q0 12 5 197q4 74 10 149 q6 113 -2 135q-8 45 30 45q51 0 181 -47q137 -51 149 -84q4 -8 -6 -18l-14 -15q-8 -10 -11 -36l-8 -121l-8 -162q-8 -162 -4 -279l2 -18q0 -10 16 -14l7 2l8 14l12 39l35 123q27 90 45 268q23 190 10 268l-6 37q-4 29 18 29q43 0 134 -35l96 -37q96 -37 108 -67 q4 -14 -10 -56q-27 -66 -27 -436l-2 -448q-2 -203 -45 -260q-61 -78 -198 -78q-86 0 -228.5 48t-226.5 105l-92 64l-21 12q-18 16 -18 43zM254 1161q-2 10 0 19l76 223q6 20 24 20l37 -4l68 4q123 8 141 -28q6 -14 -18 -62l-25 -51l-57 -61l-34 -61q-26 -46 -87 -46 q-107 0 -125 47z" />
<glyph unicode="&#xfe;" horiz-adv-x="940" d="M12 -115l11 35q16 51 18 354l2 967q0 53 -6 71.5t-8 33.5q-2 16 1 23t31 7q53 0 183 -39q141 -41 153 -75q4 -8 -4 -25q-14 -18 -16 -51l-33 -498q2 -6 8 -6l2 4l6 19l11 67q20 115 59 207q12 27 51 27q125 0 240 -66q55 -31 78 -88q35 -96 43 -254q6 -162 -18.5 -308.5 t-41.5 -189.5q-43 -119 -129 -118q-104 0 -313 124l4 -155q2 -113 18 -205q6 -27 -20 -27q-76 0 -225 60q-123 49 -105 106zM354 262q6 -88 64 -88q63 0 86 191q25 215 24 331q0 86 -12 133l-6 23v2l-4 8q-6 6 -12 6q-12 0 -15 -8l-12 -16q0 -2 -18 -68l-39 -139 q-35 -121 -50 -248q-10 -96 -6 -127z" />
<glyph unicode="&#xff;" horiz-adv-x="921" d="M-66 -123q0 37 52 80q70 55 114 55q20 0 29 -10l4 -10q14 -37 105.5 -87t140.5 -50q41 0 61 34q23 43 29 119l4 66l23 278q-4 8 -11 8q-2 0 -4 -4l-6 -22l-29 -92l-47 -133q-35 -94 -82 -95q-72 0 -169 65.5t-121 133.5q-33 98 -11 299q2 12 13 197q6 74 14 147 q10 115 4 137q-6 45 33 45q49 0 176 -47q137 -49 150 -84q2 -8 -9 -18l-14 -15q-8 -10 -12 -36l-13 -121l-14 -162q-14 -162 -12 -279v-18q0 -10 16 -14l6 2l8 14l15 39l39 123q29 88 55 268q29 190 18 268l-4 37q-4 29 19 29q43 0 133 -35l94 -37q94 -37 105 -67 q6 -14 -11 -56q-29 -66 -43 -436l-18 -448q-8 -203 -53 -260q-63 -78 -201 -78q-86 0 -227.5 48t-223.5 105l-88 64l-20 12q-17 16 -17 41zM74 1231l6 26l4 56q10 104 61 104q27 0 68 -14l43 -14q57 -20 84 -46l25 -22l20 -18q6 -4 8 -13q2 -4 0 -22l-10 -113 q-2 -18 -12 -25l-15 -6l-28 -16l-23 6l-69 21l-70 32q-63 29 -92 64zM485 1210l7 13l4 73l10 56q8 49 47 49q10 0 53 -12l49 -15l90 -33q33 -16 41.5 -36.5t8.5 -42.5l-9 -58l2 -49q2 -39 -22 -63q-70 0 -154 32q-94 37 -127 86z" />
<glyph unicode="&#x152;" horiz-adv-x="1650" d="M49 504q0 113 45 282q68 268 205 498q10 18 16 39v39q0 23 17 22l18 -4l70 -16q145 -35 270 -131q12 -2 105 -31l24 -8l-4 14l-31 72l-24 61q-6 16 2 25.5t29 7.5l28 -2l144 -6l317 -4l53 4l21 2q51 -33 104 -113q47 -72 70 -139q14 -43 -21 -43q-25 0 -45 6q-8 2 -47 2 l-221 -4l-12 -291l172 -6q10 0 26 4l15 4q31 0 86 -77q29 -39 48 -77t34 -83q20 -57 -7 -57l-14 2q-53 16 -244 16q-55 0 -122 -8l2 -225l264 -9l33 4l24 9q18 0 49 -50l41 -67q51 -82 70 -139q14 -39 -21 -39q-20 0 -32 2q-25 8 -105 8l-463 -2q-35 -2 -63 45l-25 39 l-10 16q-35 -47 -101.5 -80.5t-129.5 -33.5q-166 0 -371 120q-219 129 -270 279q-19 51 -19 123zM449 520q-18 -158 8 -233q12 -41 55 -75t82 -34q59 0 102 86q66 129 86 311l25 211q12 123 -2 195q2 20 -25 57q-37 51 -96 60q-49 0 -76 -51q-25 -27 -84 -199 q-52 -160 -75 -328z" />
<glyph unicode="&#x153;" horiz-adv-x="1380" d="M-16 358q0 156 77 390q0 2 50 114q39 90 34 107q-4 18 0 26q8 4 25 4q100 0 229 -75l21 -13q92 -18 196 -80l41 125q-8 27 19 27q102 0 217 -55h27q270 0 337 -197q16 -51 25 -153q12 -186 -33 -187l-411 4l-2 -20v-84q0 -47 8 -72q18 -53 71 -53q39 0 76 29.5t39 67.5 t29 38q51 0 135 -31q98 -37 111 -73q6 -18 -25 -47q-6 -2 -11 -10.5t-14 -18.5q-41 -61 -118.5 -96t-155.5 -35q-106 0 -192.5 39t-151.5 110q-68 -154 -201 -153q-123 0 -254 69q-143 76 -180 185q-18 48 -18 118zM305 387q-10 -141 4 -186q10 -27 37 -49.5t51 -22.5 q59 0 97 121q8 31 32.5 168t24.5 225q0 160 -94 160q-61 0 -113 -174q-29 -99 -39 -242zM862 606l139 -4q8 45 7 84q0 113 -64 113q-49 0 -67 -101l-13 -69q2 -6 0 -8q2 -3 -2 -15z" />
<glyph unicode="&#x178;" horiz-adv-x="923" d="M2 1319q-10 29 94 43q70 10 127 10q115 0 147.5 -10t41.5 -31q2 -8 0 -8l-4 -25q0 -20 14 -59l119 -326l63 283l12 84q8 43 9 53q-6 39 22 39q43 0 127 -39q12 -4 25 -10l137 -66q94 -45 102 -71q4 -10 -22 -33q-10 -16 -23 -45l-55 -147q-63 -166 -152 -517 q-86 -338 -77 -389l8 -37q4 -27 -33 -26q-63 0 -213 63q-160 66 -176 113q-2 10 10 29q47 70 68 139l37 121l-308 671q-59 127 -82 162q-8 11 -18 29zM86 1565l4 28l4 56q12 104 62 104q31 0 67 -14l43 -17q66 -25 86 -43l23 -22l20 -19l8 -12q4 -10 0 -24l-10 -111 q2 -18 -12 -27l-12 -6l-31 -16l-23 8l-67 18l-72 33q-57 27 -90 64zM512 1550l4 15l6 73l8 56q6 49 50 49q6 0 51 -12l51 -15l43 -16l45 -17q35 -12 45 -41l6 -20q0 -4 -2 -18l-6 -60v-43q2 -41 -16 -63q-10 12 -17 12l-12 -4h-10q-68 0 -135 27q-78 30 -111 77z" />
<glyph unicode="&#x2c6;" horiz-adv-x="2048" />
<glyph unicode="&#x2dc;" horiz-adv-x="2048" />
<glyph unicode="&#x2000;" horiz-adv-x="919" />
<glyph unicode="&#x2001;" horiz-adv-x="1841" />
<glyph unicode="&#x2002;" horiz-adv-x="919" />
<glyph unicode="&#x2003;" horiz-adv-x="1841" />
<glyph unicode="&#x2004;" horiz-adv-x="612" />
<glyph unicode="&#x2005;" horiz-adv-x="458" />
<glyph unicode="&#x2006;" horiz-adv-x="305" />
<glyph unicode="&#x2007;" horiz-adv-x="305" />
<glyph unicode="&#x2008;" horiz-adv-x="229" />
<glyph unicode="&#x2009;" horiz-adv-x="366" />
<glyph unicode="&#x200a;" horiz-adv-x="100" />
<glyph unicode="&#x2010;" horiz-adv-x="630" d="M-74 623q-4 59 33 59q14 0 23 -2l28 -8h254q135 0 189 6l18 2q29 0 43 -37q18 -51 23 -92l6 -70q4 -61 -25 -63l-20 4q-10 2 -86 4l-211 6l-54 -2q-29 -2 -102 -6l-29 -2q-49 -4 -67 49q-16 41 -19 80z" />
<glyph unicode="&#x2011;" horiz-adv-x="630" d="M-74 623q-4 59 33 59q14 0 23 -2l28 -8h254q135 0 189 6l18 2q29 0 43 -37q18 -51 23 -92l6 -70q4 -61 -25 -63l-20 4q-10 2 -86 4l-211 6l-54 -2q-29 -2 -102 -6l-29 -2q-49 -4 -67 49q-16 41 -19 80z" />
<glyph unicode="&#x2012;" horiz-adv-x="630" d="M-74 623q-4 59 33 59q14 0 23 -2l28 -8h254q135 0 189 6l18 2q29 0 43 -37q18 -51 23 -92l6 -70q4 -61 -25 -63l-20 4q-10 2 -86 4l-211 6l-54 -2q-29 -2 -102 -6l-29 -2q-49 -4 -67 49q-16 41 -19 80z" />
<glyph unicode="&#x2013;" d="M104 623q-2 55 35 55l23 -2q94 -8 98 -8h37l365 2q27 0 68.5 4t57.5 4h21q33 4 45 -29q25 -72 27 -157q2 -39 -4.5 -58.5t-20.5 -17.5l-25 2q-145 12 -235 10l-133 -2h-86l-101 -4q-14 0 -61 -4l-29 -2q-57 -4 -71 86q-4 18 -6 43z" />
<glyph unicode="&#x2014;" horiz-adv-x="1230" d="M-72 567l2 66q0 51 31 51l21 -2q86 -8 90 -8h86l73 2h779q14 0 26 4l35 4q35 0 47 -35q18 -51 21 -102l4 -72q2 -27 -5.5 -41t-23.5 -12l-24 2q-23 0 -80 2l-121 4h-733q-35 0 -101 -4l-45 -2q-43 -6 -65 51q-19 45 -17 92z" />
<glyph unicode="&#x2018;" horiz-adv-x="538" d="M313 1057q-4 12 11 43q27 55 30 194q2 31 4 70q6 12 35 16q4 0 13.5 -3t27.5 -11l37 -8q109 -25 127 -76q4 -8 4 -20l-6 -39l-8 -123q-6 -72 0 -96q2 -27 -5.5 -35t-35.5 -8q-16 0 -47 8q-37 10 -43 12l-21 10l-16 4l-17 9l-34 6q-12 2 -32 18.5t-24 28.5z" />
<glyph unicode="&#x2019;" horiz-adv-x="538" d="M342 1087l4 35l8 113q4 59 0 86q-6 23 4.5 31t34.5 8l64 -14q4 0 18 -7l17 -8l14 -4l14 -6l31 -6q10 -4 28.5 -19.5t22.5 -21.5q4 -14 -8 -39q-27 -59 -29 -178q0 -43 -2 -49q-6 -27 -33 -27l-38 12l-35 8q-115 29 -115 86z" />
<glyph unicode="&#x201a;" horiz-adv-x="538" d="M-150 -113l5 35l6 111q0 55 6 117q4 8 33 8l63 -13q8 0 19 -6l16 -10l14 -2l17 -8l30 -6q10 0 29 -19q16 -10 21 -22q6 -16 -7 -39q-29 -61 -28 -176q0 -53 -6.5 -64.5t-30.5 -11.5l-37 10l-35 10q-51 16 -74 27q-41 24 -41 59z" />
<glyph unicode="&#x201c;" horiz-adv-x="868" d="M328 1057q-6 16 8 37q4 10 18 104q6 29 4 31q14 39 7 59l-3 17l11 10v14q4 49 33 49q23 0 40 -8l68 -29l70 -20l18 -10l14 -6q2 -2 9 -21q4 -14 -2 -45l-9 -96l-4 -109q-4 -80 -22 -78l-27 7l-20 -2l-17 8l-18 4q-12 4 -41 12l-41 16l-41 11q-43 10 -55 45zM662 1038 q-4 14 8 41q31 63 32 197q2 59 5 72q12 12 34 14q6 -2 17 -6q2 0 24 -8l39 -11q111 -29 125 -73q6 -14 4 -23l-4 -39l-10 -123q-4 -72 2 -96q2 -43 -41 -43q-8 0 -24.5 4t-24.5 4q-37 8 -43 15l-21 10l-14 4l-18 8l-35 6q-18 4 -45 31q-6 8 -10 16z" />
<glyph unicode="&#x201d;" horiz-adv-x="868" d="M326 1079l4 39l8 123q4 74 -2 96q-8 43 41 43l74 -14l20 -6l21 -12l14 -2l18 -11l33 -6q8 0 33 -18q16 -16 22 -29q4 -14 -8 -41q-33 -66 -31 -197q0 -45 -2 -55q-6 -29 -36 -28q-10 0 -46 14l-36 8q-106 23 -125 76q-4 12 -2 20zM649 1036q-6 18 2 45q4 18 11 93l2 100 q2 90 24 92l27 -6l16 2l19 -8l18 -4q6 0 43 -15l39 -14l43 -10q39 -10 51 -45q4 -10 -6 -45q-12 -43 -12 -47l-13 -80q-10 -39 -4 -60l2 -16l-8 -10l-2 -17q-8 -49 -33 -49q-18 0 -39 8l-71 31l-66 20l-33 17q-6 4 -10 18z" />
<glyph unicode="&#x201e;" horiz-adv-x="868" d="M-82 -76l6 39l8 123q4 74 -2 96q-8 43 41 43l74 -14q10 0 18 -6l23 -12l14 -3l17 -10l35 -6q8 0 32 -18q16 -16 21 -27q6 -16 -6 -43q-33 -66 -31 -197q0 -47 -2 -55q-8 -29 -39 -29q-8 0 -43 15l-37 10q-111 29 -127 74q0 4 -2 20zM244 -119q-6 16 1 45t9 92l4 101 q2 51 6 70.5t17 21.5l28 -6l17 2l18 -8l16 -4q12 -2 46 -15l38 -14l43 -10q39 -10 52 -45q8 -18 -4.5 -38t-16.5 -55l-10 -79q-10 -39 -4 -60l2 -16l-10 -10v-17q-2 -49 -33 -49q-20 0 -41 8l-70 31l-67 20l-19 11l-12 6q-6 4 -10 18z" />
<glyph unicode="&#x2022;" horiz-adv-x="1366" d="M381 795q0 84 56.5 134t140.5 50q121 0 234.5 -85t156.5 -200q20 -57 20 -104q0 -82 -55 -131t-139 -49q-117 0 -233 82.5t-161 201.5q-20 56 -20 101z" />
<glyph unicode="&#x2026;" horiz-adv-x="1413" d="M-86 117l10 78l4 98q2 25 15 24q2 0 39 -10l65 -18l68 -23q82 -29 80 -78l-11 -176q0 -27 -16 -26l-23 4l-34 10q-180 53 -195 98q-2 7 -2 19zM385 117l10 78l4 98q2 25 13 24q4 0 41 -10l65 -18l68 -23q82 -29 80 -78l-11 -176q0 -27 -16 -26l-23 4l-34 10 q-180 53 -195 98q-2 7 -2 19zM856 117l10 78l4 98q2 25 13 24q4 0 41 -10l65 -18l68 -23q82 -29 80 -78l-11 -176q0 -27 -16 -26l-23 4l-34 10q-213 64 -197 117z" />
<glyph unicode="&#x202f;" horiz-adv-x="366" />
<glyph unicode="&#x2039;" horiz-adv-x="528" d="M-6 598q-2 59 6 73.5t47 20.5l70 10l59 13q20 8 62 20q20 0 34 -41q29 -82 25 -143l-68 -25q-51 -18 -45 -34q8 -20 41 -46l39 -28l31 -31l35 -27q35 -25 41 -45l4 -16l4 -61q8 -92 -8 -93q-8 0 -23 11l-26 22l-50 35q-57 37 -137 96l-55 51l-37 31q-20 14 -29 39 q-14 37 -20 168z" />
<glyph unicode="&#x203a;" horiz-adv-x="524" d="M33 913q-2 39 16 39q8 0 19 -8l26 -24l49 -33l138 -96l53 -52l39 -30q33 -27 41 -105q0 -4 6 -102q4 -53 -6.5 -70.5t-46.5 -23.5l-68 -11l-59 -12q-25 -2 -41 -12q-6 -4 -23 -8q-20 0 -33 41q-29 82 -26 143l71 22q49 16 43 35q-8 23 -41 47l-38 29l-31 29l-37 28 q-33 27 -39 45l-4 17l-4 61z" />
<glyph unicode="&#x205f;" horiz-adv-x="458" />
<glyph unicode="&#x2122;" horiz-adv-x="1562" d="M162 1360q2 6 12 8l23 -2l39 -2l86 -2h258l18 4q18 0 37 -18q10 -10 42 -67.5t40 -80.5q8 -25 -10 -29l-19 5q-20 4 -55 6l-58 2v-10l-6 -127l-2 -377q2 -41 8.5 -57.5t2.5 -24.5q-2 -8 -13 -6h-12l-39 8q-174 37 -186 72q-4 10 4 104l6 61l8 361h-76q-6 -6 -12 -6 q-12 0 -43 47q-23 39 -33 61l-4 13l-12 32zM682 690q25 57 41 131l102 527q-6 27 17 26q29 0 114 -26q80 -25 158 -58q55 -25 62 -41q2 -4 -5 -18l-4 -21v-20l2 -195l86 344q2 31 19 31q41 0 169 -49t138 -76l-2 -16q-2 -18 -4 -62l-8 -127q-4 -78 -4 -202q0 -55 4 -158 l8 -74l2 -6l4 -8q6 -16 -18 -17q-59 0 -136 27t-118 62q16 45 22 133l15 247l-91 -378l-4 -39l-2 -23q0 -29 -24 -29q-37 0 -120 35t-116 62v39l2 30v39l-8 283l-45 -240q-25 -137 -20 -207q2 -27 -17 -26q-39 0 -110.5 33.5t-108.5 66.5z" />
<glyph unicode="&#xe000;" horiz-adv-x="1030" d="M0 1030h1030v-1030h-1030v1030z" />
<glyph unicode="&#xfb01;" horiz-adv-x="1122" d="M704 125q-1 3 -1 11q0 16 6 50q2 20 8 70l2 78l22 393l4 229q0 20 -6 39l-6 17q-8 23 31 22q43 0 168 -49l98 -39q41 -16 47 -31q2 -10 -2 -20l-6 -18q-4 -12 -6 -48l-6 -102l-13 -348q-4 -117 -3 -186q0 -46 1 -72l5 -76l2 -31q12 -29 -9 -28q-72 0 -198 53t-138 86z M750 1147q14 71 13 125q0 27 -3 49q-8 45 20 45q45 0 154 -35q117 -39 131 -67l2 -19l-8 -35l-4 -67l-2 -60q4 -49 -23 -53q-51 0 -149 40t-131 77zM-61 1030h182l4 121l8 84q3 46 3 72q0 13 -1 20q-1 6 -1 11q0 40 71 40h47q29 -6 53 -8l66 -8l108 -12q129 -14 197 -54 q109 -61 108 -200q-45 -18 -75 -19q-37 0 -100.5 21.5t-90.5 50.5q16 34 17 60q0 13 -5 24q-10 29 -36 29q-25 0 -33 -56l-12 -78l-7 -94l64 -2q41 -2 69 -51l31 -57q12 -23 39 -93q18 -47 -10 -47l-33 9q-10 0 -31 2l-24 2l-119 2l2 -23q-1 -57 -1 -128q0 -144 3 -349 l8 -176q2 -74 13 -100l4 -13q2 -6 4 -14q-4 -10 -21 -10q-88 0 -235 65q-76 33 -90 72v98l2 68v506l-43 -4h-15l-16 8q-51 66 -92 174q-8 22 -12 57z" />
<glyph unicode="&#xfb02;" horiz-adv-x="1134" d="M723 158l16 874q1 42 1 79q0 166 -15 228q-4 12 -4 21q0 5 2 8q6 4 35 4q74 0 164 -41l108 -49q59 -27 53 -57l-6 -25q-14 -72 -16 -264v-184l-2 -453q0 -231 16 -274q14 -39 -20 -39q-66 0 -191 49t-137 80q-5 12 -5 30q0 6 1 13zM-61 1030h182l4 121l8 84q3 46 3 72 q0 13 -1 20q-1 6 -1 11q0 40 71 40h47q29 -6 53 -8l66 -8l108 -12q129 -14 197 -54q109 -61 108 -200q-45 -18 -75 -19q-37 0 -100.5 21.5t-90.5 50.5q16 34 17 60q0 13 -5 24q-10 29 -36 29q-25 0 -33 -56l-12 -78l-7 -94l64 -2q41 -2 69 -51l31 -57q12 -23 39 -93 q18 -47 -10 -47l-33 9q-10 0 -31 2l-24 2l-119 2l2 -23q-1 -57 -1 -128q0 -144 3 -349l8 -176q2 -74 13 -100l4 -13q2 -6 4 -14q-4 -10 -21 -10q-88 0 -235 65q-76 33 -90 72v98l2 68v506l-43 -4h-15l-16 8q-51 66 -92 174q-8 22 -12 57z" />
<glyph unicode="&#xfb03;" horiz-adv-x="1763" d="M1345 125q-1 3 -1 11q0 16 6 50q2 20 8 70l2 78l22 393l4 229q0 20 -6 39l-6 17q-8 23 31 22q43 0 168 -49l98 -39q41 -16 47 -31q2 -10 -2 -20l-6 -18q-4 -12 -6 -48l-6 -102l-13 -348q-4 -117 -3 -186q0 -46 1 -72l5 -76l2 -31q12 -29 -9 -28q-72 0 -198 53t-138 86z M1391 1147q14 71 13 125q0 27 -3 49q-8 45 20 45q45 0 154 -35q117 -39 131 -67l2 -19l-8 -35l-4 -67l-2 -60q4 -49 -23 -53q-51 0 -149 40t-131 77zM580 1030h182l4 121l8 84q3 46 3 72q0 13 -1 20q-1 6 -1 11q0 40 71 40h47q29 -6 53 -8l66 -8l108 -12q129 -14 197 -54 q109 -61 108 -200q-45 -18 -75 -19q-37 0 -100.5 21.5t-90.5 50.5q16 34 17 60q0 13 -5 24q-10 29 -36 29q-25 0 -33 -56l-12 -78l-7 -94l64 -2q41 -2 69 -51l31 -57q12 -23 39 -93q18 -47 -10 -47l-33 9q-10 0 -31 2l-24 2l-119 2l2 -23q-1 -57 -1 -128q0 -144 3 -349 l8 -176q2 -74 13 -100l4 -13q2 -6 4 -14q-4 -10 -21 -10q-88 0 -235 65q-76 33 -90 72v98l2 68v506l-43 -4h-15l-16 8q-51 66 -92 174q-8 22 -12 57zM-61 1030h182l4 121l8 84q3 46 3 72q0 13 -1 20q-1 6 -1 11q0 40 71 40h47q29 -6 53 -8l66 -8l108 -12q129 -14 197 -54 q109 -61 108 -200q-45 -18 -75 -19q-37 0 -100.5 21.5t-90.5 50.5q16 34 17 60q0 13 -5 24q-10 29 -36 29q-25 0 -33 -56l-12 -78l-7 -94l64 -2q41 -2 69 -51l31 -57q12 -23 39 -93q18 -47 -10 -47l-33 9q-10 0 -31 2l-24 2l-119 2l2 -23q-1 -57 -1 -128q0 -144 3 -349 l8 -176q2 -74 13 -100l4 -13q2 -6 4 -14q-4 -10 -21 -10q-88 0 -235 65q-76 33 -90 72v98l2 68v506l-43 -4h-15l-16 8q-51 66 -92 174q-8 22 -12 57z" />
<glyph unicode="&#xfb04;" horiz-adv-x="1775" d="M1364 158l16 874q1 42 1 79q0 166 -15 228q-4 12 -4 21q0 5 2 8q6 4 35 4q74 0 164 -41l108 -49q59 -27 53 -57l-6 -25q-14 -72 -16 -264v-184l-2 -453q0 -231 16 -274q14 -39 -20 -39q-66 0 -191 49t-137 80q-5 12 -5 30q0 6 1 13zM580 1030h182l4 121l8 84q3 46 3 72 q0 13 -1 20q-1 6 -1 11q0 40 71 40h47q29 -6 53 -8l66 -8l108 -12q129 -14 197 -54q109 -61 108 -200q-45 -18 -75 -19q-37 0 -100.5 21.5t-90.5 50.5q16 34 17 60q0 13 -5 24q-10 29 -36 29q-25 0 -33 -56l-12 -78l-7 -94l64 -2q41 -2 69 -51l31 -57q12 -23 39 -93 q18 -47 -10 -47l-33 9q-10 0 -31 2l-24 2l-119 2l2 -23q-1 -57 -1 -128q0 -144 3 -349l8 -176q2 -74 13 -100l4 -13q2 -6 4 -14q-4 -10 -21 -10q-88 0 -235 65q-76 33 -90 72v98l2 68v506l-43 -4h-15l-16 8q-51 66 -92 174q-8 22 -12 57zM-61 1030h182l4 121l8 84q3 46 3 72 q0 13 -1 20q-1 6 -1 11q0 40 71 40h47q29 -6 53 -8l66 -8l108 -12q129 -14 197 -54q109 -61 108 -200q-45 -18 -75 -19q-37 0 -100.5 21.5t-90.5 50.5q16 34 17 60q0 13 -5 24q-10 29 -36 29q-25 0 -33 -56l-12 -78l-7 -94l64 -2q41 -2 69 -51l31 -57q12 -23 39 -93 q18 -47 -10 -47l-33 9q-10 0 -31 2l-24 2l-119 2l2 -23q-1 -57 -1 -128q0 -144 3 -349l8 -176q2 -74 13 -100l4 -13q2 -6 4 -14q-4 -10 -21 -10q-88 0 -235 65q-76 33 -90 72v98l2 68v506l-43 -4h-15l-16 8q-51 66 -92 174q-8 22 -12 57z" />
</font>
</defs>
</svg>
